<?xml version="1.0" encoding="UTF-8"?>
<svg xmlns="http://www.w3.org/2000/svg" xmlns:xlink="http://www.w3.org/1999/xlink" width="34px" height="12px" viewBox="0 0 34 12" version="1.1">
<g id="surface1">
<path style=" stroke:none;fill-rule:nonzero;fill:rgb(100%,100%,100%);fill-opacity:1;" d="M 31.929688 3.570312 C 31.929688 3.570312 31.917969 3.515625 31.855469 3.515625 L 17.933594 3.515625 C 17.359375 2.972656 16.726562 2.695312 16.726562 2.695312 L 25.460938 2.695312 C 25.460938 2.695312 25.511719 2.695312 25.503906 2.640625 L 24.757812 0.0703125 C 24.757812 0.0703125 24.738281 0.015625 24.683594 0.015625 L 0.0429688 0.015625 C 0.0429688 0.015625 -0.0117188 0.015625 0 0.0703125 L 0.734375 2.652344 C 0.734375 2.652344 0.753906 2.707031 0.808594 2.707031 L 2.15625 2.707031 C 2.15625 2.707031 2.210938 2.707031 2.230469 2.761719 L 4.539062 10.8125 C 4.539062 10.8125 4.550781 10.867188 4.617188 10.867188 L 10.707031 10.867188 C 10.707031 10.867188 10.761719 10.867188 10.785156 10.886719 C 10.804688 10.910156 12.132812 12.007812 14.191406 12.007812 C 16.25 12.007812 17.554688 10.910156 17.578125 10.886719 C 17.578125 10.886719 17.597656 10.867188 17.652344 10.867188 L 33.957031 10.867188 C 33.957031 10.867188 34.011719 10.867188 34 10.8125 L 31.929688 3.582031 Z M 31.929688 3.570312 "/>
<path style=" stroke:none;fill-rule:nonzero;fill:rgb(99.215686%,86.27451%,0.784314%);fill-opacity:1;" d="M 11.882812 10.65625 C 13.480469 11.550781 15.386719 11.320312 16.550781 10.65625 L 17.210938 10.65625 C 15.378906 11.949219 12.929688 11.808594 11.246094 10.65625 Z M 11.882812 10.65625 "/>
<path style=" stroke:none;fill-rule:nonzero;fill:rgb(99.215686%,86.27451%,0.784314%);fill-opacity:1;" d="M 11.234375 10.65625 C 9.75 9.636719 8.886719 7.84375 9.585938 5.550781 L 8.21875 5.550781 L 9.585938 10.433594 L 4.929688 10.433594 L 2.578125 2.230469 L 1.132812 2.230469 L 0.613281 0.425781 L 24.46875 0.425781 L 24.972656 2.285156 L 7.3125 2.285156 L 7.753906 3.867188 L 10.742188 3.867188 C 13.144531 1.664062 16.5 2.519531 17.792969 3.933594 L 31.605469 3.933594 L 33.480469 10.402344 L 17.523438 10.402344 C 17.425781 10.488281 17.316406 10.566406 17.210938 10.644531 L 16.550781 10.644531 C 16.714844 10.554688 16.855469 10.457031 16.984375 10.34375 C 16.886719 9.992188 16.789062 9.636719 16.683594 9.28125 C 16.035156 9.859375 14.75 10.511719 12.949219 9.738281 C 11.367188 8.949219 10.289062 6.648438 12.378906 4.789062 C 13.167969 4.144531 14.308594 3.914062 15.195312 4.179688 C 15.085938 3.78125 15 3.394531 14.890625 2.992188 C 12.800781 2.738281 10.828125 3.679688 9.976562 5.683594 C 9.433594 6.980469 9.640625 9.082031 11.558594 10.445312 C 11.667969 10.523438 11.777344 10.578125 11.882812 10.644531 L 11.246094 10.644531 Z M 13.003906 9.039062 L 12.960938 9.226562 C 12.972656 9.160156 12.984375 9.105469 13.003906 9.039062 M 11.515625 6.890625 C 11.765625 7.289062 12.195312 7.566406 12.875 7.699219 C 12.898438 7.609375 12.929688 7.523438 12.949219 7.433594 C 12.367188 7.324219 11.957031 7.101562 11.765625 6.757812 C 11.679688 6.800781 11.59375 6.847656 11.515625 6.890625 M 15.410156 4.742188 C 15.734375 4.113281 16.195312 3.757812 16.746094 3.546875 C 16.703125 3.460938 16.671875 3.371094 16.628906 3.292969 C 16.023438 3.527344 15.507812 3.925781 15.152344 4.632812 Z M 17.8125 4.378906 C 16.574219 4.910156 15.894531 5.5625 15.527344 6.914062 C 15.625 6.9375 15.710938 6.96875 15.796875 6.992188 C 15.828125 6.890625 15.863281 6.800781 15.894531 6.703125 C 16.746094 7.335938 17.125 8.21875 17.308594 9.027344 C 17.40625 9.007812 17.492188 8.984375 17.585938 8.984375 C 17.328125 7.820312 16.800781 6.96875 15.980469 6.4375 C 16.164062 5.960938 16.433594 5.597656 16.777344 5.296875 C 17.902344 6.117188 18.449219 7.257812 18.515625 8.640625 C 18.613281 8.640625 18.710938 8.640625 18.804688 8.640625 C 18.710938 7.070312 18.074219 5.917969 16.996094 5.121094 C 17.296875 4.910156 17.585938 4.742188 17.902344 4.621094 C 17.878906 4.609375 17.855469 4.609375 17.824219 4.597656 C 17.878906 4.523438 17.945312 4.457031 17.988281 4.378906 C 17.953125 4.378906 17.933594 4.355469 17.902344 4.355469 C 17.867188 4.355469 17.835938 4.355469 17.792969 4.367188 M 6.859375 10.070312 L 7.460938 10.070312 C 7.417969 9.9375 7.386719 9.792969 7.34375 9.648438 C 7.171875 9.746094 6.988281 9.8125 6.78125 9.835938 Z M 18.082031 4.289062 C 19.496094 6.003906 19.453125 8.441406 17.867188 10.046875 L 32.941406 10.046875 L 31.273438 4.289062 Z M 3.785156 0.789062 L 1.109375 0.789062 L 1.421875 1.875 L 2.867188 1.875 L 5.230469 10.089844 L 6.480469 10.089844 C 6.460938 10.011719 6.425781 9.914062 6.40625 9.824219 C 5.511719 9.558594 5.347656 8.617188 5.898438 8.085938 Z M 6.71875 8.109375 C 6.296875 8.109375 5.964844 8.417969 5.964844 8.808594 C 5.964844 9.195312 6.296875 9.503906 6.71875 9.503906 C 7.136719 9.503906 7.472656 9.183594 7.472656 8.808594 C 7.472656 8.429688 7.128906 8.109375 6.71875 8.109375 M 5.199219 0.789062 L 7.257812 7.886719 C 7.816406 8.1875 8.054688 8.761719 7.6875 9.371094 C 7.753906 9.613281 7.816406 9.847656 7.894531 10.078125 L 9.101562 10.078125 L 7.730469 5.199219 L 9.757812 5.199219 C 9.941406 4.832031 10.15625 4.511719 10.394531 4.234375 L 7.453125 4.234375 L 6.816406 1.921875 L 24.476562 1.921875 L 24.164062 0.78125 L 5.199219 0.78125 Z M 14.386719 5.332031 C 14.289062 5.332031 14.191406 5.332031 14.117188 5.332031 C 14.039062 5.332031 13.953125 5.332031 13.878906 5.308594 C 13.835938 5.285156 13.824219 5.242188 13.824219 5.164062 C 13.824219 5.164062 13.800781 5.140625 13.792969 5.152344 C 13.714844 5.207031 13.714844 5.285156 13.75 5.332031 C 13.78125 5.375 13.835938 5.40625 13.898438 5.429688 C 13.921875 5.429688 13.933594 5.429688 13.953125 5.429688 C 13.984375 5.429688 14.019531 5.429688 14.082031 5.429688 C 14.136719 5.429688 14.203125 5.429688 14.253906 5.429688 C 14.320312 5.429688 14.375 5.429688 14.429688 5.429688 L 14.429688 5.375 C 14.429688 5.375 14.417969 5.351562 14.40625 5.339844 M 6.824219 7.777344 L 4.796875 0.789062 L 4.183594 0.789062 L 6.234375 7.867188 C 6.394531 7.800781 6.578125 7.765625 6.792969 7.765625 "/>
<path style=" stroke:none;fill-rule:nonzero;fill:rgb(12.941176%,11.764706%,11.764706%);fill-opacity:1;" d="M 14.925781 4.886719 C 14.925781 4.886719 15 4.855469 15.03125 4.84375 C 15.03125 4.84375 15.0625 4.84375 15.128906 4.84375 L 15.128906 4.820312 C 15.128906 4.820312 15.128906 4.796875 15.109375 4.789062 L 15.0625 4.789062 C 15.0625 4.789062 14.988281 4.789062 14.976562 4.808594 C 14.957031 4.832031 14.933594 4.855469 14.914062 4.875 C 14.914062 4.875 14.925781 4.898438 14.933594 4.898438 M 14.523438 5.03125 C 14.492188 4.976562 14.460938 4.921875 14.429688 4.875 C 14.40625 4.855469 14.363281 4.855469 14.351562 4.875 C 14.332031 4.898438 14.320312 4.953125 14.308594 4.996094 C 14.308594 4.996094 14.308594 5.019531 14.308594 5.019531 C 14.308594 5.019531 14.320312 5.03125 14.332031 5.042969 C 14.332031 5.042969 14.351562 5.042969 14.351562 5.042969 C 14.375 5.019531 14.375 4.996094 14.375 4.976562 L 14.394531 4.976562 C 14.394531 4.976562 14.40625 4.988281 14.417969 5.007812 L 14.417969 5.03125 C 14.417969 5.03125 14.417969 5.054688 14.4375 5.054688 C 14.460938 5.054688 14.492188 5.042969 14.523438 5.03125 M 14.429688 5.507812 L 14.429688 5.429688 C 14.429688 5.429688 14.40625 5.386719 14.40625 5.375 L 14.40625 5.332031 C 14.40625 5.332031 14.351562 5.285156 14.34375 5.273438 C 14.210938 5.253906 14.09375 5.21875 13.964844 5.199219 C 13.941406 5.199219 13.933594 5.199219 13.921875 5.175781 C 13.867188 5.121094 13.835938 5.074219 13.800781 5.019531 C 13.78125 4.964844 13.800781 4.929688 13.878906 4.921875 C 13.964844 4.910156 14.0625 4.898438 14.160156 4.886719 C 14.179688 4.886719 14.203125 4.875 14.210938 4.863281 C 14.34375 4.742188 14.535156 4.710938 14.730469 4.730469 C 14.785156 4.730469 14.902344 4.753906 14.96875 4.730469 C 15.171875 4.722656 15.226562 4.796875 15.195312 4.929688 C 15.195312 4.964844 15.195312 4.988281 15.195312 5.03125 C 15.257812 5.1875 15.289062 5.351562 15.246094 5.507812 C 15.183594 5.640625 15.117188 5.785156 15.171875 5.882812 C 15.238281 6.027344 15.28125 6.171875 15.226562 6.304688 C 15.183594 6.492188 15.074219 6.714844 15.128906 6.890625 C 15.171875 7.003906 15.257812 7.355469 15.324219 7.523438 C 15.367188 7.644531 15.421875 7.722656 15.496094 7.808594 C 15.550781 7.886719 15.59375 7.964844 15.613281 8.042969 C 15.582031 8.042969 15.550781 8.042969 15.515625 8.042969 C 15.582031 8.398438 15.625 8.917969 15.734375 9.007812 C 15.734375 9.027344 15.722656 9.0625 15.710938 9.082031 C 15.710938 9.105469 15.667969 9.128906 15.648438 9.148438 C 15.515625 9.425781 15.332031 9.582031 14.976562 9.679688 C 14.933594 9.570312 14.871094 9.449219 14.816406 9.328125 C 14.933594 9.261719 15.054688 9.183594 15.128906 9.105469 C 14.601562 8.664062 14.589844 8.519531 14.492188 8.042969 C 14.492188 8.019531 14.492188 8.007812 14.472656 8.007812 C 14.449219 8.007812 14.4375 8.007812 14.417969 8.007812 C 14.460938 8.164062 14.503906 8.320312 14.546875 8.464844 C 14.222656 8.695312 14.027344 8.882812 13.953125 9.382812 C 13.933594 9.472656 13.867188 9.492188 13.792969 9.480469 C 13.671875 9.4375 13.566406 9.425781 13.46875 9.425781 C 13.296875 9.40625 13.132812 9.339844 12.960938 9.238281 C 12.984375 9.117188 13.015625 8.996094 13.035156 8.863281 C 13.082031 8.882812 13.132812 8.894531 13.167969 8.894531 C 13.21875 8.894531 13.230469 8.917969 13.253906 8.941406 C 13.273438 8.949219 13.285156 8.960938 13.339844 8.960938 C 13.359375 8.960938 13.46875 9.015625 13.5 8.996094 C 13.402344 8.308594 13.609375 8.042969 14.117188 7.710938 C 14.136719 7.710938 14.136719 7.710938 14.160156 7.710938 C 14.179688 7.734375 14.203125 7.753906 14.222656 7.765625 C 14.265625 7.789062 14.277344 7.753906 14.246094 7.722656 C 14.074219 7.621094 13.996094 7.445312 13.953125 7.246094 C 13.953125 7.246094 13.953125 7.222656 13.910156 7.246094 C 13.15625 7.488281 13.015625 7.402344 12.507812 6.992188 L 12.636719 6.792969 C 12.636719 6.792969 12.703125 6.691406 12.734375 6.636719 C 12.90625 6.726562 12.992188 6.824219 13.046875 6.925781 C 13.070312 6.945312 13.082031 6.945312 13.101562 6.925781 C 13.328125 6.792969 13.566406 6.679688 13.800781 6.570312 C 13.800781 6.546875 13.800781 6.535156 13.800781 6.527344 C 13.75 6.558594 13.695312 6.582031 13.652344 6.601562 C 13.058594 6.269531 12.714844 6.304688 12.519531 5.539062 C 12.519531 5.539062 12.53125 5.539062 12.542969 5.539062 C 12.648438 5.484375 12.746094 5.441406 12.855469 5.386719 L 12.863281 5.386719 C 12.941406 5.464844 12.984375 5.605469 13.027344 5.75 C 13.027344 5.75 13.027344 5.785156 13.046875 5.785156 C 13.316406 5.851562 13.585938 5.917969 13.855469 5.984375 C 13.78125 6.105469 13.726562 6.203125 13.707031 6.261719 C 13.683594 6.347656 13.671875 6.414062 13.671875 6.449219 L 13.714844 6.449219 C 13.792969 6.027344 13.898438 5.882812 14.332031 5.695312 C 14.332031 5.671875 14.332031 5.640625 14.332031 5.605469 C 14.265625 5.605469 14.210938 5.605469 14.148438 5.605469 C 14.117188 5.605469 14.09375 5.585938 14.039062 5.585938 C 13.933594 5.550781 13.976562 5.464844 14.019531 5.464844 C 14.105469 5.453125 14.167969 5.464844 14.210938 5.484375 C 14.234375 5.484375 14.308594 5.496094 14.394531 5.496094 "/>
<path style=" stroke:none;fill-rule:nonzero;fill:rgb(12.941176%,11.764706%,11.764706%);fill-opacity:1;" d="M 11.527344 6.890625 C 11.601562 6.847656 11.6875 6.800781 11.777344 6.757812 C 11.96875 7.101562 12.378906 7.324219 12.960938 7.433594 C 12.941406 7.523438 12.90625 7.609375 12.886719 7.699219 C 12.21875 7.566406 11.777344 7.277344 11.539062 6.890625 "/>
<path style=" stroke:none;fill-rule:nonzero;fill:rgb(12.941176%,11.764706%,11.764706%);fill-opacity:1;" d="M 15.421875 4.742188 L 15.160156 4.632812 C 15.515625 3.925781 16.035156 3.527344 16.640625 3.292969 C 16.683594 3.371094 16.714844 3.460938 16.757812 3.546875 C 16.21875 3.757812 15.742188 4.113281 15.421875 4.742188 "/>
<path style=" stroke:none;fill-rule:nonzero;fill:rgb(12.941176%,11.764706%,11.764706%);fill-opacity:1;" d="M 17.824219 4.378906 C 17.824219 4.378906 17.902344 4.367188 17.933594 4.367188 C 17.953125 4.367188 17.988281 4.367188 18.019531 4.390625 C 17.964844 4.464844 17.910156 4.53125 17.855469 4.609375 C 17.878906 4.609375 17.902344 4.609375 17.933594 4.632812 C 17.621094 4.753906 17.316406 4.921875 17.027344 5.132812 C 18.105469 5.929688 18.730469 7.078125 18.839844 8.652344 C 18.742188 8.652344 18.644531 8.652344 18.546875 8.652344 C 18.484375 7.269531 17.933594 6.128906 16.8125 5.308594 C 16.464844 5.605469 16.195312 5.960938 16.011719 6.449219 C 16.832031 6.980469 17.359375 7.832031 17.621094 8.996094 C 17.523438 8.996094 17.4375 9.027344 17.339844 9.039062 C 17.15625 8.230469 16.777344 7.335938 15.925781 6.714844 C 15.894531 6.8125 15.863281 6.902344 15.828125 7.003906 C 15.742188 6.980469 15.648438 6.945312 15.558594 6.925781 C 15.925781 5.574219 16.605469 4.921875 17.847656 4.390625 "/>
<path style=" stroke:none;fill-rule:nonzero;fill:rgb(100%,100%,100%);fill-opacity:1;" d="M 19.023438 4.644531 L 20.21875 8.90625 C 20.328125 9.304688 20.53125 9.613281 21.082031 9.613281 L 22.148438 9.613281 C 22.449219 9.613281 22.632812 9.503906 22.515625 9.09375 C 22.105469 7.609375 21.683594 6.128906 21.277344 4.644531 L 20.640625 4.644531 L 21.867188 8.984375 C 21.902344 9.082031 21.867188 9.128906 21.792969 9.128906 L 21.449219 9.128906 C 21.371094 9.128906 21.328125 9.09375 21.320312 9.027344 C 20.910156 7.566406 20.488281 6.117188 20.078125 4.644531 Z M 22.742188 4.644531 L 21.675781 4.644531 L 23.085938 9.613281 L 23.734375 9.613281 L 22.902344 6.703125 L 24.5 9.613281 L 25.554688 9.613281 L 24.15625 4.644531 L 23.574219 4.644531 L 24.347656 7.367188 Z M 29.65625 4.644531 L 28.574219 4.644531 L 29.988281 9.613281 L 30.625 9.613281 L 29.792969 6.703125 L 31.390625 9.613281 L 32.445312 9.613281 L 31.046875 4.644531 L 30.453125 4.644531 L 31.238281 7.367188 L 29.632812 4.644531 Z M 24.554688 4.644531 L 25.976562 9.613281 L 26.785156 9.613281 L 25.363281 4.644531 Z M 26 5.199219 C 26.257812 6.425781 26.6875 7.765625 27.066406 8.996094 C 27.21875 9.4375 27.488281 9.648438 27.777344 9.625 C 27.808594 9.625 27.84375 9.625 27.875 9.625 C 28.230469 9.625 28.585938 9.625 28.933594 9.625 C 29.253906 9.625 29.449219 9.503906 29.472656 9.214844 L 29.472656 9.074219 C 29.472656 9.015625 29.449219 8.949219 29.4375 8.875 L 28.339844 5.019531 C 28.261719 4.777344 28.089844 4.6875 27.851562 4.65625 C 27.789062 4.65625 27.722656 4.644531 27.660156 4.644531 L 26.503906 4.644531 C 26.171875 4.644531 25.988281 4.796875 25.976562 5.074219 L 25.976562 5.199219 Z M 18.125 4.300781 L 31.316406 4.300781 L 32.988281 10.058594 L 17.910156 10.058594 C 19.507812 8.453125 19.539062 6.015625 18.125 4.300781 M 27.875 6.082031 C 28.144531 7.058594 28.425781 8.019531 28.707031 9.007812 C 28.714844 9.082031 28.683594 9.117188 28.597656 9.128906 L 28.316406 9.128906 C 28.15625 9.128906 28.058594 8.929688 27.992188 8.730469 C 27.949219 8.585938 27.917969 8.429688 27.875 8.285156 C 27.582031 7.257812 27.261719 6.203125 27.042969 5.230469 C 27.042969 5.152344 27.042969 5.121094 27.140625 5.121094 C 27.269531 5.121094 27.410156 5.121094 27.539062 5.121094 C 27.574219 5.121094 27.605469 5.121094 27.617188 5.164062 C 27.714844 5.484375 27.800781 5.785156 27.886719 6.09375 "/>
<path style=" stroke:none;fill-rule:nonzero;fill:rgb(92.156863%,9.803922%,13.72549%);fill-opacity:1;" d="M 3.785156 0.789062 L 5.898438 8.085938 C 5.347656 8.617188 5.511719 9.558594 6.40625 9.824219 C 6.425781 9.914062 6.460938 10.003906 6.480469 10.089844 L 5.230469 10.089844 L 2.867188 1.863281 L 1.421875 1.863281 L 1.109375 0.78125 L 3.785156 0.78125 Z M 3.785156 0.789062 "/>
<path style=" stroke:none;fill-rule:nonzero;fill:rgb(92.156863%,9.803922%,13.72549%);fill-opacity:1;" d="M 6.730469 8.109375 C 7.136719 8.109375 7.484375 8.417969 7.484375 8.808594 C 7.484375 9.195312 7.136719 9.503906 6.730469 9.503906 C 6.320312 9.503906 5.972656 9.195312 5.972656 8.808594 C 5.972656 8.417969 6.308594 8.109375 6.730469 8.109375 "/>
<path style=" stroke:none;fill-rule:nonzero;fill:rgb(92.156863%,9.803922%,13.72549%);fill-opacity:1;" d="M 5.199219 0.789062 L 24.164062 0.789062 L 24.476562 1.929688 L 6.816406 1.929688 L 7.453125 4.246094 L 10.394531 4.246094 C 10.148438 4.523438 9.941406 4.84375 9.757812 5.207031 L 7.730469 5.207031 L 9.101562 10.089844 L 7.894531 10.089844 C 7.828125 9.859375 7.753906 9.613281 7.6875 9.382812 C 8.054688 8.761719 7.816406 8.199219 7.257812 7.898438 Z M 5.199219 0.789062 "/>
<path style=" stroke:none;fill-rule:nonzero;fill:rgb(92.156863%,9.803922%,13.72549%);fill-opacity:1;" d="M 15.195312 4.191406 C 14.308594 3.933594 13.167969 4.167969 12.378906 4.796875 C 10.277344 6.660156 11.355469 8.960938 12.949219 9.746094 C 14.761719 10.523438 16.046875 9.871094 16.683594 9.292969 C 16.777344 9.648438 16.875 10.011719 16.984375 10.355469 C 15.839844 11.285156 13.425781 11.730469 11.558594 10.445312 C 9.640625 9.082031 9.433594 6.980469 9.976562 5.683594 C 10.828125 3.691406 12.800781 2.738281 14.890625 2.992188 C 15 3.394531 15.085938 3.78125 15.195312 4.179688 "/>
<path style=" stroke:none;fill-rule:nonzero;fill:rgb(92.156863%,9.803922%,13.72549%);fill-opacity:1;" d="M 14.386719 5.320312 C 14.386719 5.320312 14.386719 5.339844 14.386719 5.351562 L 14.386719 5.40625 C 14.386719 5.40625 14.289062 5.40625 14.222656 5.40625 C 14.167969 5.40625 14.117188 5.40625 14.0625 5.40625 C 13.996094 5.40625 13.964844 5.40625 13.933594 5.40625 C 13.910156 5.40625 13.898438 5.40625 13.878906 5.40625 C 13.8125 5.386719 13.757812 5.351562 13.726562 5.308594 C 13.707031 5.265625 13.707031 5.1875 13.769531 5.132812 C 13.792969 5.121094 13.800781 5.132812 13.800781 5.152344 C 13.800781 5.21875 13.824219 5.273438 13.855469 5.285156 C 13.933594 5.308594 14.019531 5.308594 14.09375 5.308594 C 14.167969 5.308594 14.265625 5.308594 14.363281 5.308594 "/>
<path style=" stroke:none;fill-rule:nonzero;fill:rgb(92.156863%,9.803922%,13.72549%);fill-opacity:1;" d="M 12.542969 5.53125 C 12.648438 5.472656 12.757812 5.429688 12.863281 5.375 C 12.757812 5.429688 12.660156 5.472656 12.550781 5.53125 C 12.550781 5.53125 12.542969 5.53125 12.53125 5.53125 "/>
<path style=" stroke:none;fill-rule:nonzero;fill:rgb(92.156863%,9.803922%,13.72549%);fill-opacity:1;" d="M 12.875 5.332031 C 12.875 5.332031 12.875 5.351562 12.875 5.351562 C 12.757812 5.40625 12.648438 5.464844 12.53125 5.519531 C 12.488281 5.496094 12.445312 5.472656 12.410156 5.453125 C 12.390625 5.429688 12.410156 5.40625 12.433594 5.417969 C 12.464844 5.417969 12.496094 5.441406 12.53125 5.441406 L 12.550781 5.441406 C 12.550781 5.441406 12.476562 5.363281 12.433594 5.332031 L 12.433594 5.308594 C 12.433594 5.308594 12.519531 5.339844 12.5625 5.351562 L 12.496094 5.253906 C 12.496094 5.253906 12.507812 5.253906 12.519531 5.230469 C 12.574219 5.273438 12.617188 5.332031 12.671875 5.363281 C 12.660156 5.296875 12.636719 5.242188 12.617188 5.175781 L 12.636719 5.175781 C 12.636719 5.175781 12.714844 5.273438 12.757812 5.332031 C 12.734375 5.285156 12.703125 5.230469 12.660156 5.1875 C 12.636719 5.140625 12.691406 5.140625 12.703125 5.152344 C 12.757812 5.199219 12.8125 5.253906 12.855469 5.320312 "/>
<path style=" stroke:none;fill-rule:nonzero;fill:rgb(92.156863%,9.803922%,13.72549%);fill-opacity:1;" d="M 12.765625 6.613281 C 12.765625 6.613281 12.703125 6.714844 12.671875 6.757812 Z M 12.765625 6.613281 "/>
<path style=" stroke:none;fill-rule:nonzero;fill:rgb(92.156863%,9.803922%,13.72549%);fill-opacity:1;" d="M 12.671875 6.769531 C 12.628906 6.835938 12.585938 6.902344 12.542969 6.96875 Z M 12.765625 6.625 C 12.765625 6.625 12.703125 6.726562 12.671875 6.769531 Z M 12.765625 6.625 L 12.671875 6.769531 L 12.542969 6.96875 C 12.542969 6.96875 12.507812 6.945312 12.496094 6.9375 C 12.496094 6.9375 12.433594 6.890625 12.402344 6.878906 C 12.402344 6.867188 12.402344 6.859375 12.410156 6.847656 C 12.445312 6.847656 12.464844 6.847656 12.507812 6.847656 C 12.464844 6.824219 12.433594 6.8125 12.402344 6.792969 C 12.402344 6.792969 12.402344 6.769531 12.402344 6.757812 L 12.519531 6.757812 C 12.519531 6.757812 12.445312 6.714844 12.421875 6.691406 C 12.402344 6.660156 12.433594 6.648438 12.445312 6.660156 C 12.488281 6.660156 12.53125 6.667969 12.574219 6.660156 L 12.496094 6.582031 C 12.496094 6.582031 12.507812 6.558594 12.519531 6.558594 C 12.5625 6.570312 12.605469 6.59375 12.636719 6.601562 C 12.617188 6.582031 12.605469 6.546875 12.585938 6.527344 C 12.585938 6.527344 12.585938 6.527344 12.605469 6.503906 C 12.691406 6.546875 12.746094 6.582031 12.777344 6.601562 "/>
<path style=" stroke:none;fill-rule:nonzero;fill:rgb(92.156863%,9.803922%,13.72549%);fill-opacity:1;" d="M 14.988281 9.636719 C 14.957031 9.582031 14.925781 9.503906 14.890625 9.4375 L 14.839844 9.316406 C 14.890625 9.414062 14.957031 9.539062 14.988281 9.636719 "/>
<path style=" stroke:none;fill-rule:nonzero;fill:rgb(92.156863%,9.803922%,13.72549%);fill-opacity:1;" d="M 14.890625 9.4375 C 14.890625 9.4375 14.847656 9.347656 14.816406 9.304688 L 14.816406 9.328125 C 14.816406 9.328125 14.890625 9.449219 14.890625 9.449219 Z M 14.890625 9.4375 "/>
<path style=" stroke:none;fill-rule:nonzero;fill:rgb(92.156863%,9.803922%,13.72549%);fill-opacity:1;" d="M 14.828125 9.292969 C 14.882812 9.414062 14.933594 9.527344 14.988281 9.648438 C 14.945312 9.671875 14.902344 9.691406 14.871094 9.703125 C 14.890625 9.671875 14.914062 9.625 14.933594 9.59375 C 14.890625 9.625 14.847656 9.648438 14.804688 9.691406 C 14.839844 9.648438 14.859375 9.605469 14.890625 9.558594 C 14.839844 9.558594 14.785156 9.582031 14.730469 9.59375 C 14.773438 9.546875 14.816406 9.515625 14.859375 9.472656 C 14.804688 9.492188 14.761719 9.503906 14.730469 9.527344 C 14.75 9.480469 14.785156 9.449219 14.804688 9.414062 C 14.761719 9.414062 14.707031 9.414062 14.675781 9.414062 C 14.730469 9.371094 14.773438 9.339844 14.828125 9.292969 "/>
<path style=" stroke:none;fill-rule:nonzero;fill:rgb(92.156863%,9.803922%,13.72549%);fill-opacity:1;" d="M 12.972656 9.214844 L 12.855469 9.214844 C 12.855469 9.214844 12.949219 9.148438 12.949219 9.148438 L 12.789062 9.105469 L 12.949219 9.050781 L 12.820312 8.972656 L 12.972656 8.949219 L 12.84375 8.851562 L 13.015625 8.851562 C 13.015625 8.851562 12.90625 8.808594 12.90625 8.808594 L 13.035156 8.839844 L 12.960938 9.214844 Z M 12.972656 9.214844 "/>
<path style=" stroke:none;fill-rule:nonzero;fill:rgb(92.156863%,9.803922%,13.72549%);fill-opacity:1;" d="M 19.023438 4.644531 L 20.078125 4.644531 C 20.488281 6.105469 20.910156 7.566406 21.320312 9.027344 C 21.339844 9.09375 21.382812 9.128906 21.449219 9.128906 L 21.792969 9.128906 C 21.867188 9.128906 21.910156 9.082031 21.867188 8.984375 L 20.640625 4.644531 L 21.277344 4.644531 C 21.683594 6.128906 22.105469 7.609375 22.515625 9.09375 C 22.632812 9.503906 22.449219 9.613281 22.148438 9.613281 L 21.082031 9.613281 C 20.519531 9.613281 20.316406 9.304688 20.21875 8.90625 Z M 19.023438 4.644531 "/>
<path style=" stroke:none;fill-rule:nonzero;fill:rgb(92.156863%,9.803922%,13.72549%);fill-opacity:1;" d="M 22.742188 4.644531 L 24.347656 7.367188 L 23.574219 4.644531 L 24.15625 4.644531 L 25.554688 9.613281 L 24.5 9.613281 L 22.902344 6.703125 L 23.734375 9.613281 L 23.085938 9.613281 L 21.675781 4.644531 Z M 22.742188 4.644531 "/>
<path style=" stroke:none;fill-rule:nonzero;fill:rgb(92.156863%,9.803922%,13.72549%);fill-opacity:1;" d="M 29.65625 4.644531 L 31.261719 7.367188 L 30.472656 4.644531 L 31.066406 4.644531 L 32.46875 9.613281 L 31.410156 9.613281 L 29.816406 6.703125 L 30.644531 9.613281 L 30.011719 9.613281 L 28.585938 4.644531 L 29.664062 4.644531 Z M 29.65625 4.644531 "/>
<path style=" stroke:none;fill-rule:nonzero;fill:rgb(92.156863%,9.803922%,13.72549%);fill-opacity:1;" d="M 24.554688 4.644531 L 25.363281 4.644531 L 26.785156 9.613281 L 25.976562 9.613281 Z M 24.554688 4.644531 "/>
<path style=" stroke:none;fill-rule:nonzero;fill:rgb(92.156863%,9.803922%,13.72549%);fill-opacity:1;" d="M 27.863281 6.082031 C 27.777344 5.773438 27.691406 5.464844 27.59375 5.152344 C 27.59375 5.109375 27.550781 5.109375 27.519531 5.109375 C 27.390625 5.109375 27.25 5.109375 27.121094 5.109375 C 27.035156 5.109375 27.023438 5.152344 27.023438 5.21875 C 27.238281 6.203125 27.5625 7.257812 27.851562 8.285156 C 27.898438 8.429688 27.941406 8.585938 27.972656 8.730469 C 28.035156 8.929688 28.125 9.117188 28.296875 9.128906 L 28.574219 9.128906 C 28.664062 9.128906 28.695312 9.082031 28.683594 9.007812 C 28.402344 8.03125 28.125 7.070312 27.851562 6.082031 M 25.976562 5.199219 L 25.976562 5.074219 C 25.988281 4.796875 26.171875 4.65625 26.503906 4.644531 C 26.925781 4.644531 27.304688 4.644531 27.660156 4.644531 C 27.722656 4.644531 27.789062 4.644531 27.851562 4.65625 C 28.078125 4.675781 28.261719 4.777344 28.339844 5.019531 L 29.4375 8.875 C 29.449219 8.941406 29.460938 9.007812 29.472656 9.074219 L 29.472656 9.214844 C 29.449219 9.503906 29.246094 9.625 28.933594 9.625 C 28.585938 9.625 28.230469 9.625 27.875 9.625 C 27.84375 9.625 27.808594 9.625 27.777344 9.625 C 27.496094 9.648438 27.21875 9.449219 27.066406 8.996094 C 26.679688 7.777344 26.257812 6.4375 26 5.207031 "/>
<path style=" stroke:none;fill-rule:nonzero;fill:rgb(100%,100%,100%);fill-opacity:1;" d="M 14.925781 4.886719 C 14.925781 4.886719 14.914062 4.875 14.902344 4.863281 C 14.925781 4.84375 14.945312 4.820312 14.96875 4.796875 C 14.976562 4.777344 15.011719 4.777344 15.054688 4.777344 L 15.097656 4.777344 C 15.097656 4.777344 15.117188 4.777344 15.117188 4.808594 L 15.117188 4.832031 C 15.054688 4.832031 15.019531 4.832031 15.019531 4.832031 C 14.988281 4.84375 14.957031 4.863281 14.914062 4.875 "/>
<path style=" stroke:none;fill-rule:nonzero;fill:rgb(100%,100%,100%);fill-opacity:1;" d="M 14.515625 5.019531 C 14.515625 5.019531 14.460938 5.019531 14.429688 5.03125 C 14.40625 5.03125 14.394531 5.03125 14.40625 5.007812 L 14.40625 4.988281 C 14.40625 4.988281 14.394531 4.941406 14.386719 4.941406 L 14.363281 4.941406 C 14.363281 4.941406 14.363281 5.007812 14.34375 5.019531 C 14.34375 5.019531 14.320312 5.019531 14.320312 5.019531 C 14.320312 5.019531 14.308594 5.007812 14.296875 4.996094 C 14.296875 4.996094 14.296875 4.976562 14.296875 4.976562 C 14.308594 4.929688 14.320312 4.875 14.34375 4.855469 C 14.351562 4.832031 14.394531 4.832031 14.417969 4.855469 C 14.460938 4.898438 14.480469 4.953125 14.515625 5.007812 "/>
</g>
</svg>
