<?xml version="1.0" encoding="UTF-8"?>
<svg xmlns="http://www.w3.org/2000/svg" xmlns:xlink="http://www.w3.org/1999/xlink" width="34px" height="34px" viewBox="0 0 34 34" version="1.1">
<g id="surface1">
<path style=" stroke:none;fill-rule:nonzero;fill:rgb(85.882353%,63.137255%,6.666667%);fill-opacity:1;" d="M 34.078125 17.039062 C 34.078125 26.449219 26.449219 34.078125 17.039062 34.078125 C 7.628906 34.078125 0 26.449219 0 17.039062 C 0 7.628906 7.628906 0 17.039062 0 C 26.449219 0 34.078125 7.628906 34.078125 17.039062 "/>
<path style=" stroke:none;fill-rule:nonzero;fill:rgb(1.176471%,27.45098%,58.039216%);fill-opacity:1;" d="M 33.511719 17.039062 C 33.511719 26.136719 26.136719 33.511719 17.039062 33.511719 C 7.945312 33.511719 0.570312 26.136719 0.570312 17.039062 C 0.570312 7.945312 7.945312 0.570312 17.039062 0.570312 C 26.136719 0.570312 33.511719 7.945312 33.511719 17.039062 "/>
<path style=" stroke:none;fill-rule:nonzero;fill:rgb(85.882353%,63.137255%,6.666667%);fill-opacity:1;" d="M 28.773438 17.039062 C 28.773438 23.519531 23.519531 28.773438 17.039062 28.773438 C 10.554688 28.773438 5.300781 23.519531 5.300781 17.039062 C 5.300781 10.554688 10.554688 5.300781 17.039062 5.300781 C 23.519531 5.300781 28.773438 10.554688 28.773438 17.039062 "/>
<path style=" stroke:none;fill-rule:nonzero;fill:rgb(100%,100%,100%);fill-opacity:1;" d="M 28.421875 17.039062 C 28.421875 23.324219 23.324219 28.421875 17.039062 28.421875 C 10.753906 28.421875 5.65625 23.324219 5.65625 17.039062 C 5.65625 10.753906 10.753906 5.65625 17.039062 5.65625 C 23.324219 5.65625 28.421875 10.753906 28.421875 17.039062 "/>
<path style=" stroke:none;fill-rule:nonzero;fill:rgb(85.882353%,63.137255%,6.666667%);fill-opacity:1;" d="M 7.285156 26.855469 C 7.414062 26.976562 7.71875 27.273438 7.71875 27.273438 L 8.019531 26.960938 L 7.132812 26.117188 L 7.019531 26.234375 L 5.828125 27.484375 L 6.28125 27.910156 C 6.28125 27.910156 6.660156 27.511719 6.800781 27.367188 C 6.917969 27.480469 7.195312 27.746094 7.195312 27.746094 L 7.496094 27.433594 C 7.496094 27.433594 7.21875 27.164062 7.101562 27.054688 C 7.171875 26.976562 7.210938 26.9375 7.285156 26.855469 "/>
<path style=" stroke:none;fill-rule:nonzero;fill:rgb(85.882353%,63.137255%,6.666667%);fill-opacity:1;" d="M 9.421875 28.28125 C 9.382812 28.042969 9.246094 27.832031 9.042969 27.6875 C 8.84375 27.546875 8.601562 27.488281 8.359375 27.523438 C 8.101562 27.570312 7.875 27.71875 7.707031 27.949219 C 7.546875 28.175781 7.480469 28.445312 7.523438 28.703125 C 7.566406 28.945312 7.699219 29.152344 7.902344 29.296875 C 8.101562 29.441406 8.347656 29.5 8.585938 29.460938 C 8.84375 29.414062 9.078125 29.265625 9.238281 29.035156 C 9.367188 28.855469 9.433594 28.644531 9.433594 28.4375 C 9.433594 28.390625 9.429688 28.335938 9.421875 28.28125 M 8.152344 28.945312 C 7.945312 28.800781 8.113281 28.492188 8.234375 28.324219 C 8.355469 28.15625 8.585938 27.890625 8.792969 28.039062 C 9.011719 28.195312 8.8125 28.527344 8.710938 28.664062 C 8.617188 28.800781 8.367188 29.097656 8.152344 28.945312 Z M 8.152344 28.945312 "/>
<path style=" stroke:none;fill-rule:nonzero;fill:rgb(85.882353%,63.137255%,6.666667%);fill-opacity:1;" d="M 10.816406 28.753906 C 10.339844 28.511719 9.785156 28.710938 9.535156 29.214844 C 9.40625 29.464844 9.378906 29.742188 9.460938 29.988281 C 9.539062 30.21875 9.703125 30.40625 9.921875 30.519531 C 10.148438 30.628906 10.398438 30.652344 10.625 30.574219 C 10.875 30.492188 11.082031 30.308594 11.207031 30.0625 C 11.464844 29.558594 11.292969 29 10.816406 28.753906 M 10.289062 30.148438 C 10.230469 30.167969 10.175781 30.164062 10.117188 30.132812 C 10.023438 30.085938 9.988281 30 9.988281 29.902344 C 9.988281 29.769531 10.054688 29.613281 10.109375 29.503906 C 10.203125 29.320312 10.390625 29.027344 10.621094 29.140625 C 10.679688 29.167969 10.714844 29.210938 10.734375 29.265625 C 10.769531 29.378906 10.734375 29.566406 10.632812 29.769531 C 10.53125 29.96875 10.402344 30.109375 10.289062 30.148438 Z M 10.289062 30.148438 "/>
<path style=" stroke:none;fill-rule:nonzero;fill:rgb(85.882353%,63.137255%,6.666667%);fill-opacity:1;" d="M 11.800781 29.445312 L 11.710938 29.695312 C 11.710938 29.695312 11.9375 29.773438 12.003906 29.800781 C 11.917969 30.042969 11.523438 31.171875 11.523438 31.171875 L 12.109375 31.382812 C 12.109375 31.382812 12.503906 30.253906 12.59375 30.007812 C 12.664062 30.027344 12.886719 30.105469 12.886719 30.105469 L 13.027344 29.699219 L 11.851562 29.289062 L 11.800781 29.445312 "/>
<path style=" stroke:none;fill-rule:nonzero;fill:rgb(85.882353%,63.137255%,6.666667%);fill-opacity:1;" d="M 14.238281 29.992188 L 13.445312 29.824219 L 13.410156 29.988281 L 13.058594 31.671875 L 13.867188 31.839844 C 14.125 31.894531 14.292969 31.832031 14.390625 31.769531 C 14.515625 31.6875 14.601562 31.554688 14.632812 31.398438 C 14.640625 31.355469 14.648438 31.316406 14.648438 31.273438 C 14.648438 31.160156 14.609375 31.058594 14.546875 30.96875 C 14.636719 30.898438 14.699219 30.796875 14.730469 30.667969 C 14.734375 30.632812 14.738281 30.597656 14.738281 30.558594 C 14.738281 30.34375 14.617188 30.070312 14.238281 29.992188 M 14.019531 31.277344 C 14.011719 31.316406 14 31.367188 13.96875 31.386719 C 13.941406 31.40625 13.890625 31.40625 13.820312 31.394531 C 13.820312 31.394531 13.792969 31.386719 13.753906 31.378906 C 13.785156 31.257812 13.800781 31.171875 13.824219 31.054688 C 13.859375 31.0625 13.902344 31.070312 13.902344 31.070312 C 14.007812 31.089844 14.027344 31.167969 14.027344 31.226562 C 14.027344 31.25 14.023438 31.269531 14.019531 31.277344 Z M 13.964844 30.375 C 14.035156 30.394531 14.085938 30.417969 14.105469 30.449219 C 14.117188 30.460938 14.121094 30.480469 14.121094 30.5 C 14.121094 30.519531 14.121094 30.53125 14.117188 30.550781 C 14.101562 30.601562 14.089844 30.667969 13.953125 30.640625 C 13.953125 30.640625 13.9375 30.636719 13.914062 30.628906 C 13.933594 30.53125 13.945312 30.480469 13.964844 30.375 Z M 13.964844 30.375 "/>
<path style=" stroke:none;fill-rule:nonzero;fill:rgb(85.882353%,63.137255%,6.666667%);fill-opacity:1;" d="M 15.703125 30.265625 L 14.84375 32.03125 L 15.335938 32.070312 C 15.335938 32.070312 15.46875 31.789062 15.523438 31.675781 C 15.625 31.683594 15.730469 31.691406 15.832031 31.699219 C 15.871094 31.816406 15.964844 32.121094 15.964844 32.121094 L 16.621094 32.167969 L 15.890625 29.898438 L 15.703125 30.265625 "/>
<path style=" stroke:none;fill-rule:nonzero;fill:rgb(85.882353%,63.137255%,6.666667%);fill-opacity:1;" d="M 17.652344 31.675781 C 17.640625 31.417969 17.589844 30.242188 17.589844 30.242188 L 16.96875 30.269531 L 17.046875 32.152344 L 18.296875 32.101562 L 18.277344 31.652344 C 18.277344 31.652344 17.828125 31.667969 17.652344 31.675781 "/>
<path style=" stroke:none;fill-rule:nonzero;fill:rgb(85.882353%,63.137255%,6.666667%);fill-opacity:1;" d="M 19.359375 31.492188 C 19.320312 31.238281 19.136719 30.078125 19.136719 30.078125 L 18.976562 30.101562 L 18.519531 30.171875 L 18.8125 32.042969 L 20.046875 31.847656 L 19.976562 31.398438 C 19.976562 31.398438 19.535156 31.46875 19.359375 31.492188 "/>
<path style=" stroke:none;fill-rule:nonzero;fill:rgb(85.882353%,63.137255%,6.666667%);fill-opacity:1;" d="M 22.929688 30.238281 C 22.925781 30.402344 22.832031 30.542969 22.683594 30.601562 C 22.597656 30.632812 22.519531 30.632812 22.441406 30.601562 C 22.320312 30.546875 22.207031 30.417969 22.140625 30.246094 C 22.0625 30.046875 22.046875 29.882812 22.101562 29.761719 C 22.132812 29.679688 22.203125 29.617188 22.3125 29.574219 C 22.429688 29.53125 22.535156 29.570312 22.691406 29.660156 L 22.828125 29.742188 L 23.054688 29.378906 L 22.917969 29.289062 C 22.667969 29.125 22.359375 29.089844 22.09375 29.199219 C 21.84375 29.296875 21.648438 29.484375 21.546875 29.722656 C 21.445312 29.960938 21.445312 30.234375 21.546875 30.496094 C 21.746094 30.996094 22.308594 31.238281 22.796875 31.039062 C 23.152344 30.898438 23.351562 30.632812 23.375 30.265625 L 23.386719 30.101562 L 22.9375 30.066406 L 22.929688 30.238281 "/>
<path style=" stroke:none;fill-rule:nonzero;fill:rgb(85.882353%,63.137255%,6.666667%);fill-opacity:1;" d="M 24.382812 29.726562 C 24.257812 29.496094 23.6875 28.472656 23.6875 28.472656 L 23.542969 28.550781 L 23.136719 28.773438 L 24.058594 30.421875 L 25.152344 29.816406 L 24.929688 29.417969 C 24.929688 29.417969 24.542969 29.636719 24.382812 29.726562 "/>
<path style=" stroke:none;fill-rule:nonzero;fill:rgb(85.882353%,63.137255%,6.666667%);fill-opacity:1;" d="M 25.59375 27.179688 L 25.460938 27.28125 L 25.230469 27.449219 L 25.992188 28.496094 C 26.027344 28.542969 26.027344 28.570312 26.027344 28.59375 C 26.019531 28.644531 25.960938 28.703125 25.914062 28.738281 C 25.890625 28.757812 25.835938 28.777344 25.78125 28.769531 C 25.742188 28.765625 25.710938 28.742188 25.683594 28.703125 L 24.925781 27.675781 L 24.421875 28.042969 L 25.175781 29.070312 C 25.285156 29.21875 25.425781 29.308594 25.585938 29.335938 C 25.769531 29.363281 25.972656 29.300781 26.164062 29.160156 C 26.558594 28.871094 26.554688 28.488281 26.378906 28.257812 L 25.59375 27.179688 "/>
<path style=" stroke:none;fill-rule:nonzero;fill:rgb(85.882353%,63.137255%,6.666667%);fill-opacity:1;" d="M 27.890625 26.804688 C 27.773438 26.683594 27.632812 26.628906 27.484375 26.636719 C 27.472656 26.519531 27.429688 26.410156 27.339844 26.316406 C 27.179688 26.152344 26.828125 26.027344 26.503906 26.34375 L 25.917969 26.90625 L 27.234375 28.265625 L 27.828125 27.6875 C 28.019531 27.503906 28.0625 27.328125 28.0625 27.210938 C 28.066406 27.066406 28.003906 26.917969 27.890625 26.804688 M 26.898438 26.757812 C 26.917969 26.777344 26.941406 26.804688 26.941406 26.835938 C 26.941406 26.867188 26.929688 26.898438 26.882812 26.945312 C 26.882812 26.945312 26.871094 26.957031 26.851562 26.972656 C 26.777344 26.894531 26.746094 26.859375 26.671875 26.78125 C 26.800781 26.664062 26.855469 26.714844 26.898438 26.757812 Z M 27.210938 27.226562 C 27.316406 27.121094 27.417969 27.214844 27.445312 27.242188 C 27.476562 27.273438 27.507812 27.3125 27.507812 27.347656 C 27.507812 27.378906 27.480469 27.425781 27.429688 27.472656 C 27.429688 27.472656 27.410156 27.492188 27.382812 27.515625 C 27.296875 27.429688 27.238281 27.371094 27.152344 27.28125 C 27.175781 27.253906 27.210938 27.226562 27.210938 27.226562 Z M 27.210938 27.226562 "/>
<path style=" stroke:none;fill-rule:nonzero;fill:rgb(100%,100%,100%);fill-opacity:1;" d="M 7.28125 26.683594 C 7.332031 26.734375 7.714844 27.097656 7.714844 27.097656 L 7.84375 26.964844 L 7.132812 26.292969 L 7.109375 26.320312 L 6.003906 27.480469 L 6.277344 27.738281 C 6.277344 27.738281 6.75 27.246094 6.796875 27.195312 C 6.847656 27.238281 7.191406 27.570312 7.191406 27.570312 L 7.320312 27.4375 C 7.320312 27.4375 6.976562 27.105469 6.921875 27.058594 C 6.96875 27.011719 7.238281 26.734375 7.28125 26.683594 "/>
<path style=" stroke:none;fill-rule:nonzero;fill:rgb(100%,100%,100%);fill-opacity:1;" d="M 8.972656 27.785156 C 8.796875 27.664062 8.585938 27.613281 8.382812 27.648438 C 8.15625 27.6875 7.953125 27.820312 7.8125 28.019531 C 7.664062 28.222656 7.609375 28.460938 7.644531 28.683594 C 7.683594 28.890625 7.796875 29.074219 7.972656 29.199219 C 8.148438 29.324219 8.359375 29.371094 8.566406 29.335938 C 8.789062 29.296875 8.992188 29.164062 9.136719 28.964844 C 9.25 28.804688 9.3125 28.621094 9.3125 28.4375 C 9.3125 28.394531 9.308594 28.347656 9.300781 28.300781 C 9.261719 28.097656 9.148438 27.914062 8.972656 27.785156 M 8.8125 28.734375 C 8.695312 28.898438 8.386719 29.265625 8.082031 29.042969 C 7.773438 28.828125 8.015625 28.417969 8.132812 28.25 C 8.25 28.085938 8.5625 27.71875 8.867188 27.9375 C 9.171875 28.15625 8.929688 28.566406 8.8125 28.734375 Z M 8.8125 28.734375 "/>
<path style=" stroke:none;fill-rule:nonzero;fill:rgb(100%,100%,100%);fill-opacity:1;" d="M 10.757812 28.867188 C 10.347656 28.660156 9.867188 28.832031 9.644531 29.273438 C 9.535156 29.492188 9.507812 29.734375 9.578125 29.949219 C 9.644531 30.148438 9.785156 30.308594 9.980469 30.40625 C 10.171875 30.503906 10.386719 30.523438 10.585938 30.457031 C 10.804688 30.386719 10.984375 30.226562 11.097656 30.003906 C 11.316406 29.566406 11.171875 29.078125 10.757812 28.867188 M 10.066406 30.242188 C 9.726562 30.074219 9.90625 29.628906 10 29.453125 C 10.089844 29.269531 10.34375 28.863281 10.675781 29.03125 C 10.765625 29.074219 10.824219 29.140625 10.851562 29.226562 C 10.917969 29.429688 10.8125 29.6875 10.742188 29.824219 C 10.675781 29.960938 10.523438 30.203125 10.324219 30.269531 C 10.238281 30.296875 10.152344 30.289062 10.066406 30.242188 Z M 10.066406 30.242188 "/>
<path style=" stroke:none;fill-rule:nonzero;fill:rgb(100%,100%,100%);fill-opacity:1;" d="M 11.914062 29.484375 L 11.871094 29.621094 C 11.871094 29.621094 12.101562 29.703125 12.160156 29.726562 C 12.136719 29.796875 11.679688 31.097656 11.679688 31.097656 L 12.035156 31.222656 C 12.035156 31.222656 12.492188 29.921875 12.515625 29.851562 C 12.574219 29.871094 12.808594 29.949219 12.808594 29.949219 L 12.871094 29.777344 L 11.929688 29.445312 L 11.914062 29.484375 "/>
<path style=" stroke:none;fill-rule:nonzero;fill:rgb(100%,100%,100%);fill-opacity:1;" d="M 14.214844 30.109375 L 13.542969 29.96875 L 13.535156 30.011719 L 13.203125 31.578125 L 13.890625 31.722656 C 14.066406 31.757812 14.210938 31.738281 14.324219 31.664062 C 14.417969 31.601562 14.484375 31.5 14.515625 31.371094 C 14.519531 31.339844 14.523438 31.304688 14.523438 31.273438 C 14.523438 31.136719 14.457031 31.023438 14.335938 30.941406 C 14.472656 30.898438 14.574219 30.796875 14.605469 30.640625 C 14.613281 30.617188 14.617188 30.589844 14.617188 30.558594 C 14.617188 30.402344 14.535156 30.175781 14.214844 30.109375 M 13.976562 30.253906 C 14.09375 30.273438 14.167969 30.320312 14.210938 30.382812 C 14.234375 30.414062 14.242188 30.457031 14.242188 30.5 C 14.242188 30.527344 14.242188 30.550781 14.234375 30.574219 C 14.195312 30.785156 14.023438 30.785156 13.929688 30.761719 C 13.929688 30.761719 13.824219 30.742188 13.765625 30.730469 C 13.78125 30.664062 13.859375 30.292969 13.871094 30.226562 C 13.917969 30.234375 13.976562 30.253906 13.976562 30.253906 Z M 13.929688 30.949219 C 14.121094 30.992188 14.148438 31.140625 14.148438 31.230469 C 14.148438 31.273438 14.144531 31.296875 14.140625 31.300781 C 14.125 31.394531 14.089844 31.457031 14.035156 31.488281 C 13.976562 31.527344 13.898438 31.535156 13.796875 31.515625 C 13.796875 31.515625 13.675781 31.488281 13.609375 31.472656 C 13.621094 31.40625 13.710938 30.972656 13.730469 30.90625 C 13.785156 30.921875 13.929688 30.949219 13.929688 30.949219 Z M 13.929688 30.949219 "/>
<path style=" stroke:none;fill-rule:nonzero;fill:rgb(100%,100%,100%);fill-opacity:1;" d="M 15.816406 30.320312 L 15.035156 31.925781 L 15.261719 31.941406 C 15.261719 31.941406 15.425781 31.59375 15.449219 31.546875 C 15.496094 31.550781 15.878906 31.582031 15.925781 31.585938 C 15.941406 31.628906 16.0625 32.003906 16.0625 32.003906 L 16.449219 32.03125 L 15.867188 30.226562 L 15.816406 30.320312 M 15.730469 30.964844 C 15.773438 31.085938 15.84375 31.320312 15.867188 31.394531 C 15.789062 31.390625 15.609375 31.378906 15.535156 31.367188 C 15.566406 31.296875 15.675781 31.078125 15.730469 30.964844 Z M 15.730469 30.964844 "/>
<path style=" stroke:none;fill-rule:nonzero;fill:rgb(100%,100%,100%);fill-opacity:1;" d="M 17.53125 31.804688 C 17.53125 31.726562 17.472656 30.371094 17.472656 30.371094 L 17.429688 30.371094 L 17.09375 30.386719 L 17.167969 32.023438 L 18.167969 31.984375 L 18.15625 31.78125 C 18.15625 31.78125 17.605469 31.804688 17.53125 31.804688 "/>
<path style=" stroke:none;fill-rule:nonzero;fill:rgb(100%,100%,100%);fill-opacity:1;" d="M 19.257812 31.636719 C 19.246094 31.558594 19.035156 30.21875 19.035156 30.21875 L 18.992188 30.226562 L 18.664062 30.277344 L 18.917969 31.898438 L 19.90625 31.742188 L 19.875 31.539062 C 19.871094 31.539062 19.328125 31.625 19.257812 31.636719 "/>
<path style=" stroke:none;fill-rule:nonzero;fill:rgb(100%,100%,100%);fill-opacity:1;" d="M 23.054688 30.242188 C 23.050781 30.457031 22.921875 30.636719 22.726562 30.71875 C 22.617188 30.761719 22.503906 30.757812 22.394531 30.710938 C 22.242188 30.652344 22.109375 30.496094 22.027344 30.292969 C 21.933594 30.066406 21.921875 29.863281 21.984375 29.710938 C 22.035156 29.601562 22.128906 29.511719 22.265625 29.460938 C 22.445312 29.390625 22.609375 29.472656 22.753906 29.554688 L 22.785156 29.570312 L 22.886719 29.414062 L 22.851562 29.394531 C 22.636719 29.253906 22.367188 29.21875 22.136719 29.3125 C 21.917969 29.402344 21.746094 29.5625 21.660156 29.769531 C 21.570312 29.976562 21.570312 30.222656 21.664062 30.453125 C 21.835938 30.886719 22.324219 31.097656 22.753906 30.929688 C 23.0625 30.804688 23.230469 30.574219 23.253906 30.257812 L 23.253906 30.214844 L 23.058594 30.203125 L 23.054688 30.242188 "/>
<path style=" stroke:none;fill-rule:nonzero;fill:rgb(100%,100%,100%);fill-opacity:1;" d="M 24.335938 29.894531 C 24.300781 29.824219 23.636719 28.636719 23.636719 28.636719 L 23.597656 28.660156 L 23.308594 28.824219 L 24.109375 30.257812 L 24.980469 29.765625 L 24.882812 29.589844 C 24.882812 29.589844 24.398438 29.859375 24.335938 29.894531 "/>
<path style=" stroke:none;fill-rule:nonzero;fill:rgb(100%,100%,100%);fill-opacity:1;" d="M 25.570312 27.355469 L 25.539062 27.378906 L 25.398438 27.480469 L 26.09375 28.421875 C 26.140625 28.484375 26.160156 28.546875 26.148438 28.609375 C 26.132812 28.722656 26.03125 28.808594 25.984375 28.835938 C 25.9375 28.875 25.847656 28.90625 25.761719 28.890625 C 25.691406 28.882812 25.628906 28.839844 25.582031 28.777344 L 24.898438 27.847656 L 24.59375 28.070312 L 25.277344 28.996094 C 25.367188 29.117188 25.480469 29.195312 25.605469 29.214844 C 25.808594 29.242188 25.996094 29.132812 26.09375 29.0625 C 26.421875 28.820312 26.425781 28.515625 26.285156 28.328125 L 25.570312 27.355469 "/>
<path style=" stroke:none;fill-rule:nonzero;fill:rgb(100%,100%,100%);fill-opacity:1;" d="M 27.804688 26.890625 C 27.675781 26.757812 27.511719 26.730469 27.34375 26.796875 C 27.359375 26.753906 27.367188 26.714844 27.367188 26.675781 C 27.367188 26.574219 27.328125 26.480469 27.246094 26.402344 C 27.144531 26.292969 26.871094 26.160156 26.589844 26.429688 L 26.097656 26.910156 L 27.238281 28.085938 L 27.742188 27.597656 C 27.871094 27.476562 27.9375 27.34375 27.9375 27.210938 C 27.941406 27.09375 27.890625 26.980469 27.804688 26.890625 M 27.066406 26.839844 C 27.066406 26.917969 27.011719 26.988281 26.96875 27.03125 C 26.96875 27.03125 26.894531 27.105469 26.847656 27.148438 C 26.804688 27.097656 26.539062 26.828125 26.492188 26.777344 C 26.523438 26.75 26.574219 26.703125 26.574219 26.703125 C 26.730469 26.554688 26.859375 26.542969 26.984375 26.671875 C 27.042969 26.734375 27.066406 26.785156 27.066406 26.839844 Z M 27.378906 27.695312 C 27.335938 27.644531 27.023438 27.328125 26.976562 27.277344 C 27.019531 27.238281 27.121094 27.136719 27.121094 27.136719 C 27.328125 26.941406 27.53125 27.148438 27.539062 27.15625 C 27.601562 27.222656 27.632812 27.285156 27.632812 27.347656 C 27.632812 27.417969 27.589844 27.488281 27.515625 27.5625 C 27.515625 27.5625 27.421875 27.652344 27.378906 27.695312 Z M 27.378906 27.695312 "/>
<path style=" stroke:none;fill-rule:nonzero;fill:rgb(85.882353%,63.137255%,6.666667%);fill-opacity:1;" d="M 9.46875 5.816406 L 8.777344 6 L 8.859375 6.246094 C 8.953125 6.546875 8.871094 6.859375 8.636719 7.0625 C 8.503906 7.175781 8.355469 7.230469 8.1875 7.21875 C 7.941406 7.199219 7.65625 7.039062 7.433594 6.78125 C 7.167969 6.484375 7.039062 6.191406 7.054688 5.949219 C 7.066406 5.765625 7.15625 5.605469 7.320312 5.460938 C 7.503906 5.300781 7.742188 5.308594 8.058594 5.371094 L 8.292969 5.417969 L 8.445312 4.757812 L 8.210938 4.699219 C 7.699219 4.574219 7.167969 4.699219 6.785156 5.03125 C 6.042969 5.679688 5.984375 6.742188 6.644531 7.5 C 7.261719 8.207031 8.328125 8.28125 9.027344 7.671875 C 9.53125 7.234375 9.703125 6.675781 9.535156 6.050781 L 9.46875 5.816406 "/>
<path style=" stroke:none;fill-rule:nonzero;fill:rgb(85.882353%,63.137255%,6.666667%);fill-opacity:1;" d="M 11.339844 2.363281 L 10.636719 2.6875 C 10.636719 2.6875 11.027344 3.523438 11.164062 3.808594 C 10.960938 3.90625 10.765625 3.996094 10.566406 4.09375 C 10.429688 3.804688 10.039062 2.972656 10.039062 2.972656 L 9.113281 3.40625 L 10.519531 6.398438 L 11.449219 5.964844 C 11.449219 5.964844 11.015625 5.039062 10.875 4.738281 C 11.074219 4.644531 11.269531 4.554688 11.46875 4.457031 C 11.609375 4.757812 12.042969 5.683594 12.042969 5.683594 L 12.972656 5.246094 L 11.5625 2.253906 L 11.339844 2.363281 "/>
<path style=" stroke:none;fill-rule:nonzero;fill:rgb(85.882353%,63.137255%,6.666667%);fill-opacity:1;" d="M 14.476562 4.210938 C 14.429688 3.992188 14.386719 3.765625 14.339844 3.539062 C 14.625 3.480469 15.386719 3.328125 15.386719 3.328125 L 15.253906 2.664062 C 15.253906 2.664062 14.492188 2.816406 14.207031 2.875 C 14.164062 2.671875 14.132812 2.503906 14.089844 2.300781 C 14.386719 2.238281 15.199219 2.074219 15.199219 2.074219 L 15.066406 1.410156 L 14.820312 1.460938 L 12.949219 1.839844 L 13.605469 5.082031 L 15.738281 4.648438 L 15.601562 3.984375 C 15.601562 3.984375 14.773438 4.15625 14.476562 4.210938 "/>
<path style=" stroke:none;fill-rule:nonzero;fill:rgb(85.882353%,63.137255%,6.666667%);fill-opacity:1;" d="M 17.503906 1.332031 L 16.472656 1.3125 L 16.46875 1.5625 L 16.40625 4.621094 L 18.554688 4.664062 L 18.574219 3.945312 C 18.574219 3.945312 17.746094 3.929688 17.445312 3.925781 C 17.453125 3.519531 17.503906 1.332031 17.503906 1.332031 "/>
<path style=" stroke:none;fill-rule:nonzero;fill:rgb(85.882353%,63.137255%,6.666667%);fill-opacity:1;" d="M 20.824219 3 C 20.558594 2.804688 20.476562 2.726562 20.507812 2.625 C 20.519531 2.566406 20.582031 2.390625 20.773438 2.4375 C 20.886719 2.464844 21 2.527344 21.050781 2.773438 L 21.109375 3.050781 L 21.785156 2.816406 L 21.742188 2.605469 C 21.660156 2.1875 21.304688 1.832031 20.859375 1.722656 C 20.539062 1.640625 20.226562 1.683594 19.960938 1.84375 C 19.722656 1.984375 19.550781 2.210938 19.484375 2.480469 C 19.316406 3.160156 19.773438 3.484375 20.074219 3.703125 C 20.382812 3.925781 20.460938 4.007812 20.414062 4.195312 C 20.398438 4.253906 20.367188 4.300781 20.3125 4.332031 C 20.25 4.371094 20.175781 4.382812 20.109375 4.367188 C 19.945312 4.324219 19.875 4.25 19.808594 4.039062 L 19.726562 3.785156 L 19.046875 4.0625 L 19.113281 4.277344 C 19.238281 4.699219 19.542969 4.964844 20.042969 5.089844 C 20.597656 5.226562 21.277344 4.96875 21.449219 4.300781 C 21.625 3.589844 21.140625 3.238281 20.824219 3 "/>
<path style=" stroke:none;fill-rule:nonzero;fill:rgb(85.882353%,63.137255%,6.666667%);fill-opacity:1;" d="M 23.269531 4.765625 C 23.53125 4.898438 24.222656 5.246094 24.222656 5.246094 L 24.527344 4.644531 C 24.527344 4.644531 23.835938 4.292969 23.578125 4.164062 C 23.667969 3.976562 23.75 3.820312 23.839844 3.636719 C 24.109375 3.773438 24.851562 4.144531 24.851562 4.144531 L 25.160156 3.539062 L 23.234375 2.570312 L 23.121094 2.789062 L 21.738281 5.519531 L 23.683594 6.5 L 23.988281 5.898438 C 23.988281 5.898438 23.234375 5.515625 22.960938 5.378906 C 23.0625 5.175781 23.167969 4.96875 23.269531 4.765625 "/>
<path style=" stroke:none;fill-rule:nonzero;fill:rgb(85.882353%,63.137255%,6.666667%);fill-opacity:1;" d="M 27.105469 5.074219 L 24.019531 6.675781 L 24.613281 7.183594 C 24.613281 7.183594 25.117188 6.914062 25.304688 6.820312 C 25.441406 6.933594 25.644531 7.113281 25.78125 7.230469 C 25.714844 7.429688 25.523438 7.980469 25.523438 7.980469 L 26.339844 8.691406 L 27.660156 4.796875 L 27.105469 5.074219 "/>
<path style=" stroke:none;fill-rule:nonzero;fill:rgb(100%,100%,100%);fill-opacity:1;" d="M 9.355469 6.015625 L 8.988281 6.113281 L 9.015625 6.195312 C 9.132812 6.558594 9.027344 6.941406 8.746094 7.1875 C 8.578125 7.328125 8.386719 7.394531 8.179688 7.382812 C 7.882812 7.363281 7.566406 7.183594 7.308594 6.890625 C 7.015625 6.558594 6.867188 6.226562 6.890625 5.933594 C 6.90625 5.710938 7.015625 5.511719 7.214844 5.335938 C 7.476562 5.109375 7.804688 5.152344 8.089844 5.207031 L 8.167969 5.222656 L 8.246094 4.875 L 8.167969 4.859375 C 7.710938 4.75 7.234375 4.855469 6.894531 5.15625 C 6.226562 5.746094 6.171875 6.703125 6.769531 7.390625 C 7.324219 8.027344 8.292969 8.097656 8.917969 7.546875 C 9.375 7.148438 9.53125 6.65625 9.375 6.097656 L 9.355469 6.015625 "/>
<path style=" stroke:none;fill-rule:nonzero;fill:rgb(100%,100%,100%);fill-opacity:1;" d="M 11.410156 2.507812 L 10.855469 2.769531 C 10.855469 2.769531 11.320312 3.761719 11.382812 3.890625 C 11.265625 3.941406 10.609375 4.253906 10.488281 4.3125 C 10.425781 4.179688 9.960938 3.191406 9.960938 3.191406 L 9.328125 3.484375 L 10.601562 6.179688 L 11.230469 5.886719 C 11.230469 5.886719 10.714844 4.792969 10.652344 4.660156 C 10.769531 4.601562 11.429688 4.296875 11.546875 4.238281 C 11.609375 4.371094 12.128906 5.460938 12.128906 5.460938 L 12.753906 5.167969 L 11.484375 2.472656 L 11.410156 2.507812 "/>
<path style=" stroke:none;fill-rule:nonzero;fill:rgb(100%,100%,100%);fill-opacity:1;" d="M 14.34375 4.40625 C 14.320312 4.277344 14.167969 3.539062 14.144531 3.410156 C 14.28125 3.386719 15.191406 3.199219 15.191406 3.199219 L 15.125 2.859375 C 15.125 2.859375 14.214844 3.042969 14.074219 3.070312 C 14.050781 2.945312 13.921875 2.296875 13.894531 2.171875 C 14.03125 2.140625 15.003906 1.945312 15.003906 1.945312 L 14.9375 1.605469 L 13.144531 1.96875 L 13.734375 4.886719 L 15.542969 4.519531 L 15.472656 4.179688 C 15.472656 4.179688 14.484375 4.378906 14.34375 4.40625 "/>
<path style=" stroke:none;fill-rule:nonzero;fill:rgb(100%,100%,100%);fill-opacity:1;" d="M 17.332031 1.492188 L 16.640625 1.480469 L 16.632812 1.5625 L 16.574219 4.457031 L 18.398438 4.496094 L 18.40625 4.109375 C 18.40625 4.109375 17.417969 4.089844 17.277344 4.085938 C 17.28125 3.929688 17.332031 1.492188 17.332031 1.492188 "/>
<path style=" stroke:none;fill-rule:nonzero;fill:rgb(100%,100%,100%);fill-opacity:1;" d="M 20.808594 2.277344 C 21.03125 2.332031 21.160156 2.476562 21.210938 2.738281 L 21.234375 2.832031 L 21.59375 2.710938 L 21.582031 2.640625 C 21.511719 2.28125 21.203125 1.976562 20.824219 1.878906 C 20.542969 1.808594 20.269531 1.847656 20.046875 1.984375 C 19.84375 2.105469 19.703125 2.296875 19.644531 2.523438 C 19.503906 3.09375 19.871094 3.351562 20.171875 3.570312 C 20.46875 3.785156 20.652344 3.929688 20.578125 4.238281 C 20.542969 4.363281 20.460938 4.4375 20.398438 4.472656 C 20.300781 4.53125 20.175781 4.554688 20.070312 4.523438 C 19.851562 4.46875 19.738281 4.355469 19.652344 4.089844 L 19.621094 4.003906 L 19.25 4.160156 L 19.269531 4.230469 C 19.378906 4.589844 19.644531 4.820312 20.078125 4.925781 C 20.5625 5.046875 21.140625 4.832031 21.289062 4.257812 C 21.4375 3.65625 21.042969 3.367188 20.722656 3.132812 C 20.453125 2.933594 20.292969 2.800781 20.34375 2.582031 C 20.394531 2.382812 20.558594 2.210938 20.808594 2.277344 "/>
<path style=" stroke:none;fill-rule:nonzero;fill:rgb(100%,100%,100%);fill-opacity:1;" d="M 23.769531 3.410156 C 23.894531 3.476562 24.777344 3.921875 24.777344 3.921875 L 24.933594 3.613281 L 23.304688 2.789062 L 23.265625 2.863281 L 21.964844 5.449219 L 23.609375 6.28125 L 23.765625 5.96875 C 23.765625 5.96875 22.867188 5.515625 22.738281 5.449219 C 22.796875 5.332031 23.136719 4.660156 23.195312 4.542969 C 23.320312 4.605469 24.152344 5.027344 24.152344 5.027344 L 24.308594 4.714844 C 24.308594 4.714844 23.480469 4.300781 23.355469 4.234375 C 23.414062 4.121094 23.710938 3.527344 23.769531 3.410156 "/>
<path style=" stroke:none;fill-rule:nonzero;fill:rgb(100%,100%,100%);fill-opacity:1;" d="M 27.179688 5.222656 L 24.3125 6.707031 L 24.632812 6.984375 C 24.632812 6.984375 25.242188 6.660156 25.324219 6.617188 C 25.398438 6.683594 25.902344 7.117188 25.972656 7.179688 C 25.945312 7.273438 25.714844 7.929688 25.714844 7.929688 L 26.257812 8.40625 L 27.371094 5.132812 L 27.179688 5.222656 M 25.65625 6.445312 C 25.792969 6.375 26.144531 6.195312 26.355469 6.085938 C 26.277344 6.3125 26.144531 6.683594 26.09375 6.828125 C 25.984375 6.726562 25.769531 6.539062 25.65625 6.445312 Z M 25.65625 6.445312 "/>
<path style=" stroke:none;fill-rule:nonzero;fill:rgb(81.960784%,82.745098%,83.137255%);fill-opacity:1;" d="M 25.179688 16.59375 C 24.945312 15.964844 24.132812 15.695312 23.367188 15.988281 C 23.046875 16.109375 22.785156 16.308594 22.605469 16.542969 C 23.113281 15.101562 25.171875 14.796875 25.171875 13.453125 C 25.171875 11.203125 21.976562 11.832031 22.441406 13.453125 C 22.441406 12.71875 23.613281 12.585938 23.613281 13.453125 C 23.613281 14.324219 21.574219 14.890625 21.574219 16.363281 C 21.574219 17.984375 23.191406 18.132812 23.03125 19.617188 C 23 19.871094 22.726562 20.207031 22.328125 20.207031 C 19.847656 20.207031 20.730469 17.152344 19.863281 16.21875 L 19.910156 15.59375 C 20.410156 15.898438 21.742188 15.183594 20.863281 14.082031 C 20.863281 14.621094 19.738281 14.59375 19.738281 13.570312 C 19.738281 12.191406 21.03125 12.910156 21.097656 13.21875 C 21.035156 12.710938 21.007812 12.394531 21.09375 12.105469 C 20.394531 12.332031 20.332031 11.929688 20.421875 11.769531 C 20.519531 11.59375 20.65625 11.378906 20.925781 11.378906 C 21.070312 11.378906 21.164062 11.402344 21.210938 11.4375 C 21.300781 11.496094 21.363281 11.359375 21.351562 11.488281 C 21.425781 11.371094 21.394531 11.515625 21.464844 11.402344 C 21.539062 11.289062 21.640625 11.160156 21.808594 10.992188 L 21.804688 10.738281 L 22.003906 10.8125 L 22.199219 10.496094 C 21.992188 10.0625 21.707031 10.273438 21.496094 9.726562 C 21.320312 9.683594 18.585938 9.980469 18.664062 8.890625 C 18.445312 8.890625 17.914062 9.015625 18.242188 9.457031 C 17.988281 9.488281 17.804688 9.203125 17.421875 9.980469 C 17.902344 9.890625 17.652344 10.425781 17.652344 10.578125 C 17.652344 11.566406 16.335938 11.550781 16.335938 11.089844 C 16.019531 11.398438 16.199219 12.070312 16.679688 12.234375 C 16.679688 12.234375 16.496094 12.957031 16.046875 13.414062 C 15.378906 13.390625 14.304688 13.273438 13.6875 12.6875 C 13.421875 12.4375 13.210938 12.300781 13.027344 12.230469 L 13.027344 11.902344 C 13.292969 11.773438 13.585938 11.546875 13.882812 11.164062 C 14.117188 10.878906 14.242188 10.511719 14.210938 10.121094 C 14.207031 10.078125 14.199219 10.03125 14.191406 9.984375 C 14.1875 9.96875 14.183594 9.957031 14.183594 9.945312 C 14.171875 9.910156 14.164062 9.882812 14.15625 9.847656 C 14.152344 9.835938 14.148438 9.820312 14.144531 9.804688 C 14.132812 9.773438 14.125 9.746094 14.109375 9.714844 C 14.105469 9.703125 14.101562 9.6875 14.09375 9.679688 C 14.078125 9.636719 14.0625 9.601562 14.039062 9.5625 C 14.03125 9.546875 14.023438 9.535156 14.015625 9.515625 C 14 9.496094 13.988281 9.472656 13.972656 9.449219 C 13.960938 9.433594 13.949219 9.417969 13.9375 9.402344 C 13.925781 9.382812 13.914062 9.363281 13.894531 9.347656 C 13.882812 9.328125 13.867188 9.308594 13.855469 9.292969 C 13.839844 9.28125 13.828125 9.273438 13.820312 9.257812 C 13.78125 9.21875 13.738281 9.175781 13.695312 9.140625 C 13.691406 9.136719 13.6875 9.132812 13.683594 9.125 C 13.660156 9.105469 13.628906 9.085938 13.605469 9.070312 C 13.601562 9.058594 13.59375 9.054688 13.585938 9.050781 C 13.554688 9.03125 13.53125 9.015625 13.5 8.992188 C 13.496094 8.992188 13.496094 8.992188 13.492188 8.992188 C 13.214844 8.820312 12.875 8.726562 12.511719 8.757812 C 11.648438 8.828125 11.011719 9.550781 11.082031 10.371094 C 11.140625 11.011719 11.609375 11.523438 12.222656 11.683594 C 12.007812 11.804688 11.824219 11.875 11.789062 11.875 C 11.792969 11.878906 11.800781 11.882812 11.8125 11.890625 C 11.8125 11.890625 11.816406 11.890625 11.820312 11.894531 C 11.828125 11.898438 11.835938 11.902344 11.847656 11.910156 C 11.847656 11.910156 11.851562 11.910156 11.859375 11.914062 C 11.871094 11.917969 11.882812 11.929688 11.898438 11.9375 C 11.902344 11.9375 11.902344 11.941406 11.90625 11.941406 C 11.925781 11.945312 11.9375 11.953125 11.953125 11.960938 C 11.957031 11.960938 11.960938 11.960938 11.964844 11.964844 C 12.003906 11.980469 12.042969 11.996094 12.089844 12.007812 C 12.097656 12.011719 12.105469 12.011719 12.109375 12.011719 C 12.132812 12.019531 12.148438 12.023438 12.167969 12.027344 C 12.171875 12.027344 12.179688 12.027344 12.191406 12.03125 C 12.214844 12.035156 12.238281 12.039062 12.265625 12.042969 C 12.269531 12.042969 12.269531 12.042969 12.273438 12.042969 L 12.273438 12.230469 C 12.261719 12.230469 12.25 12.230469 12.242188 12.234375 C 11.960938 12.28125 11.777344 12.367188 11.699219 12.617188 C 11.617188 12.867188 11.699219 12.957031 11.832031 13.136719 C 11.71875 13.335938 11.429688 13.40625 11.808594 13.84375 C 11.78125 14.011719 11.816406 14.277344 12.058594 14.355469 C 12.136719 14.382812 12.203125 14.398438 12.273438 14.410156 L 12.273438 17.703125 C 12.03125 17.824219 11.910156 17.988281 11.84375 18.132812 C 11.84375 18.132812 11.65625 17.707031 11.667969 18.554688 C 11.886719 18.386719 11.800781 18.75 11.800781 18.75 C 11.5 19.136719 11.878906 19.117188 11.878906 19.117188 C 12.136719 18.859375 12.085938 19.234375 12.085938 19.234375 C 12.085938 19.691406 12.269531 19.867188 12.273438 19.867188 L 12.273438 22.375 L 12.054688 22.375 L 12.054688 23.066406 L 12.4375 23.066406 C 12.222656 23.15625 12.082031 23.367188 12.101562 23.601562 C 12.128906 23.898438 12.402344 24.117188 12.710938 24.09375 C 13.019531 24.066406 13.253906 23.8125 13.222656 23.511719 C 13.207031 23.308594 13.074219 23.140625 12.886719 23.066406 L 13.238281 23.0625 L 13.238281 22.375 L 13.027344 22.375 L 13.027344 20.148438 C 13.074219 20.175781 13.121094 20.191406 13.167969 20.199219 C 13.191406 20.203125 13.210938 20.207031 13.230469 20.207031 C 13.238281 20.210938 13.253906 20.210938 13.261719 20.210938 C 13.203125 19.917969 13.375 19.726562 13.375 19.726562 C 13.46875 19.589844 13.597656 19.484375 13.746094 19.410156 C 14.1875 19.1875 14.789062 19.246094 14.964844 19.605469 C 16.109375 19.304688 17.085938 18.15625 17.085938 18.15625 L 17.652344 19.113281 C 16.460938 19.511719 13.867188 21.765625 15.667969 22.550781 C 15.667969 22.773438 15.632812 24.460938 14.554688 24.324219 C 13 24.132812 12.609375 24.777344 12.90625 25.503906 C 12.765625 26.113281 13.234375 26.324219 13.234375 26.324219 C 13.164062 25.972656 13.335938 25.683594 13.976562 25.6875 C 13.976562 26.328125 14.394531 26.445312 14.394531 26.445312 C 14.398438 25.894531 14.78125 25.691406 15.121094 25.691406 C 15.117188 26.148438 15.644531 26.316406 15.644531 26.316406 C 15.644531 26.316406 15.511719 25.792969 16.109375 25.691406 C 17.617188 25.429688 16.199219 23.871094 18.492188 23.445312 C 18.492188 23.445312 17.351562 23.273438 17.351562 22.648438 C 17.351562 22.078125 18.386719 21.691406 18.742188 21.691406 C 19.472656 23.089844 20.265625 23.097656 20.476562 23.109375 C 20.800781 23.46875 20.691406 24.691406 20.226562 24.664062 C 18.515625 24.574219 18.578125 25.613281 18.769531 25.828125 C 18.746094 26.230469 19.058594 26.460938 19.058594 26.460938 C 19.058594 26.03125 19.472656 25.910156 20 25.9375 C 19.972656 26.46875 20.308594 26.546875 20.308594 26.546875 C 20.320312 26.015625 20.714844 25.921875 20.992188 25.9375 C 20.972656 26.308594 21.339844 26.421875 21.339844 26.421875 C 21.339844 26.421875 21.304688 25.949219 21.800781 25.949219 C 22.75 25.949219 21.375 23.917969 23.222656 21.917969 C 21.601562 22.664062 20.738281 20.789062 20.738281 20.433594 C 21.570312 21.40625 24.273438 21.601562 24.273438 19.933594 C 24.273438 18.34375 22.523438 17.75 23.339844 17.140625 C 23.820312 16.789062 24.753906 17.503906 24.21875 18.242188 C 24.984375 17.957031 25.414062 17.214844 25.179688 16.59375 M 14.816406 16.644531 C 14.207031 17 13.796875 17.457031 13.238281 17.65625 C 13.15625 17.683594 13.089844 17.691406 13.027344 17.6875 L 13.027344 14.585938 C 13.175781 14.597656 13.558594 14.652344 14.007812 14.832031 C 14.453125 15.078125 14.453125 15.578125 13.890625 15.695312 C 14.242188 16.375 15.472656 16.042969 15.738281 15.488281 C 15.871094 15.476562 15.984375 15.714844 16.09375 15.933594 C 15.921875 16.019531 15.566406 16.199219 14.816406 16.644531 Z M 21.65625 11.492188 C 21.589844 11.582031 21.523438 11.675781 21.464844 11.753906 C 21.625 12.011719 21.914062 12.171875 22.234375 12.144531 C 22.671875 12.101562 22.996094 11.707031 22.960938 11.269531 C 22.957031 11.25 22.957031 11.234375 22.953125 11.222656 C 22.90625 11.449219 22.636719 11.640625 22.292969 11.675781 C 22.03125 11.699219 21.796875 11.625 21.65625 11.492188 Z M 21.65625 11.492188 "/>
<path style=" stroke:none;fill-rule:nonzero;fill:rgb(1.176471%,27.45098%,58.039216%);fill-opacity:1;" d="M 11.78125 9.625 C 11.78125 9.625 11.78125 9.628906 11.78125 9.628906 C 11.792969 9.613281 11.800781 9.59375 11.808594 9.578125 C 11.800781 9.59375 11.792969 9.609375 11.78125 9.625 M 11.8125 22.648438 C 11.8125 22.648438 11.816406 22.648438 11.816406 22.648438 C 11.816406 22.648438 11.8125 22.648438 11.8125 22.648438 Z M 11.796875 8.300781 Z M 11.558594 22.574219 L 11.941406 22.574219 C 11.894531 22.589844 11.851562 22.621094 11.816406 22.648438 C 11.851562 22.632812 11.894531 22.625 11.9375 22.625 C 12.128906 22.625 12.28125 22.78125 12.28125 22.972656 C 12.28125 23.164062 12.128906 23.320312 11.9375 23.320312 C 11.777344 23.320312 11.648438 23.21875 11.609375 23.078125 L 11.609375 23.109375 C 11.632812 23.402344 11.902344 23.625 12.214844 23.597656 C 12.527344 23.574219 12.757812 23.3125 12.730469 23.019531 C 12.710938 22.816406 12.574219 22.648438 12.394531 22.574219 L 12.746094 22.570312 L 12.746094 21.882812 L 12.535156 21.882812 L 12.535156 19.65625 C 12.332031 19.546875 12.210938 19.316406 12.257812 19.078125 C 12.390625 19.078125 12.503906 19.113281 12.585938 19.167969 C 12.464844 19.433594 12.765625 19.71875 12.765625 19.71875 C 12.707031 19.421875 12.882812 19.234375 12.882812 19.234375 C 12.972656 19.097656 13.101562 18.992188 13.25 18.917969 C 13.691406 18.695312 14.292969 18.75 14.472656 19.113281 C 15.613281 18.808594 16.59375 17.664062 16.59375 17.664062 L 17.15625 18.617188 C 18.472656 18.617188 18.011719 17.632812 17.929688 17.546875 C 18.234375 17.546875 18.65625 17.769531 18.65625 18.261719 C 18.65625 19.476562 15.132812 19.648438 15.132812 21.121094 C 15.132812 21.738281 15.746094 21.972656 15.746094 21.972656 C 15.746094 23.316406 14.824219 24.113281 14.195312 24.113281 C 13.1875 24.113281 12.414062 23.910156 12.414062 25.011719 L 12.765625 25.011719 C 12.429688 25.34375 12.742188 25.832031 12.742188 25.832031 C 12.671875 25.480469 12.839844 25.1875 13.484375 25.191406 L 13.886719 25.191406 C 13.632812 25.445312 13.78125 25.832031 13.898438 25.953125 C 13.898438 25.398438 14.285156 25.195312 14.625 25.195312 C 14.746094 25.195312 14.917969 25.195312 14.917969 25.195312 C 14.835938 25.277344 14.960938 25.636719 15.148438 25.824219 C 15.148438 25.824219 15.015625 25.300781 15.613281 25.195312 C 17.121094 24.933594 15.703125 23.378906 18 22.953125 C 18 22.953125 16.859375 22.78125 16.859375 22.15625 C 16.859375 21.585938 17.890625 21.195312 18.25 21.195312 C 18.527344 21.160156 18.796875 21.167969 19.023438 21.214844 C 19.117188 22.117188 20.148438 22.070312 20.378906 22.070312 C 21.253906 22.953125 20.152344 24.363281 20.152344 24.363281 C 18.804688 24.363281 18.273438 24.546875 18.273438 25.335938 L 18.527344 25.335938 C 18.386719 25.476562 18.464844 25.871094 18.566406 25.96875 C 18.566406 25.539062 18.980469 25.417969 19.507812 25.441406 L 19.785156 25.441406 C 19.648438 25.578125 19.671875 25.90625 19.8125 26.050781 C 19.824219 25.515625 20.214844 25.429688 20.5 25.441406 L 20.730469 25.441406 C 20.644531 25.527344 20.730469 25.808594 20.847656 25.925781 C 20.847656 25.925781 20.808594 25.453125 21.308594 25.453125 C 22.253906 25.453125 20.878906 23.425781 22.726562 21.421875 C 21.109375 22.171875 20.246094 20.296875 20.246094 19.9375 C 21.074219 20.914062 23.777344 21.105469 23.777344 19.441406 C 23.777344 18.101562 22.53125 17.464844 22.636719 16.9375 C 22.671875 16.53125 23.015625 16.210938 23.429688 16.210938 C 23.867188 16.210938 24.222656 16.570312 24.222656 17.007812 C 24.222656 17.34375 24.019531 17.625 23.722656 17.746094 C 23.722656 17.746094 23.722656 17.742188 23.722656 17.742188 C 23.722656 17.746094 23.722656 17.746094 23.722656 17.746094 C 24.492188 17.464844 24.917969 16.722656 24.6875 16.09375 C 24.449219 15.472656 23.640625 15.203125 22.871094 15.492188 C 22.554688 15.613281 22.292969 15.8125 22.113281 16.050781 C 22.621094 14.605469 24.679688 14.300781 24.679688 12.957031 C 24.679688 10.707031 21.484375 11.339844 21.949219 12.957031 C 21.949219 12.933594 21.949219 12.90625 21.953125 12.886719 C 22.035156 11.96875 23.667969 11.78125 23.667969 12.976562 C 23.667969 14 21.574219 14.5625 21.574219 15.9375 C 21.574219 17.34375 23.121094 17.699219 23.121094 19.183594 C 23.121094 19.359375 23.03125 20.121094 22 20.121094 C 21.007812 20.121094 20.53125 19.566406 20.257812 18.839844 C 19.75 17.863281 19.9375 16.335938 19.371094 15.726562 L 19.414062 15.097656 C 19.917969 15.40625 21.246094 14.683594 20.375 13.589844 C 20.375 14.128906 19.25 14.097656 19.25 13.078125 C 19.25 11.695312 20.535156 12.417969 20.597656 12.722656 C 20.539062 12.21875 20.515625 11.898438 20.597656 11.613281 C 19.902344 11.832031 19.839844 11.433594 19.925781 11.277344 C 20.027344 11.097656 20.164062 10.886719 20.433594 10.886719 C 20.824219 10.886719 20.796875 11.03125 20.777344 11.230469 C 20.925781 11.007812 20.96875 10.835938 21.316406 10.496094 L 21.308594 10.242188 L 21.511719 10.316406 L 21.707031 10.003906 C 21.5 9.566406 21.210938 9.773438 21 9.234375 C 20.828125 9.1875 18.527344 8.976562 18.605469 7.886719 C 18.402344 7.886719 17.851562 8.585938 18.222656 8.964844 C 18.222656 8.964844 17.929688 8.964844 17.746094 8.964844 C 17.492188 8.992188 16.894531 8.816406 16.515625 9.59375 C 17.457031 8.652344 18.066406 10.898438 16.332031 10.898438 C 16.078125 10.898438 15.859375 10.796875 15.84375 10.613281 C 15.671875 11.371094 16.761719 11.609375 16.761719 11.609375 C 16.761719 11.832031 16.214844 13.054688 15.949219 13.320312 C 16.128906 13.496094 16.1875 14.582031 15.355469 14.582031 C 15.65625 13.769531 14.773438 13.085938 13.921875 12.632812 C 13.925781 12.632812 13.925781 12.632812 13.925781 12.632812 C 13.769531 12.574219 13.621094 12.5 13.484375 12.417969 C 12.960938 12.175781 12.535156 12.042969 12.535156 12.042969 L 12.535156 11.410156 C 12.800781 11.28125 13.085938 11.050781 13.390625 10.671875 C 13.621094 10.382812 13.75 10.019531 13.710938 9.628906 C 13.710938 9.578125 13.703125 9.539062 13.695312 9.492188 C 13.691406 9.476562 13.6875 9.460938 13.6875 9.445312 C 13.679688 9.417969 13.671875 9.382812 13.664062 9.355469 C 13.660156 9.339844 13.65625 9.324219 13.652344 9.308594 C 13.636719 9.28125 13.628906 9.246094 13.617188 9.21875 C 13.613281 9.207031 13.605469 9.191406 13.601562 9.179688 C 13.585938 9.144531 13.566406 9.105469 13.546875 9.070312 C 13.539062 9.050781 13.53125 9.039062 13.523438 9.023438 C 13.503906 9.003906 13.492188 8.976562 13.480469 8.957031 C 13.46875 8.941406 13.457031 8.921875 13.441406 8.902344 C 13.429688 8.886719 13.417969 8.871094 13.402344 8.851562 C 13.390625 8.835938 13.371094 8.816406 13.355469 8.796875 C 13.347656 8.785156 13.335938 8.773438 13.328125 8.765625 C 13.285156 8.71875 13.242188 8.683594 13.203125 8.644531 C 13.199219 8.640625 13.195312 8.636719 13.191406 8.632812 C 13.164062 8.613281 13.136719 8.589844 13.109375 8.574219 C 13.101562 8.566406 13.097656 8.5625 13.089844 8.558594 C 13.0625 8.539062 13.035156 8.519531 13.003906 8.5 C 13.003906 8.5 13.003906 8.5 13 8.5 C 12.71875 8.324219 12.378906 8.234375 12.019531 8.261719 C 11.945312 8.273438 11.871094 8.285156 11.796875 8.300781 C 11.296875 8.492188 10.9375 9.074219 10.9375 9.761719 C 10.9375 10.410156 11.257812 10.964844 11.707031 11.183594 C 11.714844 11.183594 11.726562 11.1875 11.730469 11.1875 C 11.511719 11.308594 11.332031 11.378906 11.289062 11.378906 C 11.296875 11.382812 11.304688 11.386719 11.316406 11.398438 C 11.316406 11.398438 11.320312 11.398438 11.328125 11.402344 C 11.335938 11.40625 11.34375 11.410156 11.351562 11.417969 C 11.355469 11.417969 11.359375 11.417969 11.359375 11.417969 C 11.375 11.425781 11.386719 11.433594 11.40625 11.441406 C 11.410156 11.441406 11.410156 11.441406 11.414062 11.445312 C 11.425781 11.449219 11.441406 11.460938 11.460938 11.464844 C 11.464844 11.46875 11.46875 11.46875 11.472656 11.472656 C 11.507812 11.484375 11.550781 11.5 11.597656 11.511719 C 11.605469 11.511719 11.609375 11.515625 11.617188 11.515625 C 11.632812 11.523438 11.65625 11.53125 11.675781 11.53125 C 11.679688 11.535156 11.6875 11.535156 11.695312 11.539062 C 11.71875 11.542969 11.746094 11.546875 11.769531 11.546875 C 11.773438 11.546875 11.773438 11.550781 11.773438 11.550781 C 11.941406 11.5625 12.136719 11.523438 12.136719 11.523438 L 12.136719 11.890625 C 12.105469 11.890625 11.847656 11.808594 11.773438 11.738281 C 11.765625 11.738281 11.757812 11.738281 11.75 11.742188 C 11.46875 11.789062 11.285156 11.875 11.203125 12.125 C 11.125 12.371094 11.207031 12.464844 11.339844 12.640625 C 11.226562 12.835938 10.9375 12.910156 11.3125 13.351562 C 11.289062 13.519531 11.320312 13.785156 11.5625 13.863281 C 11.640625 13.890625 11.707031 13.902344 11.773438 13.917969 C 11.917969 13.917969 12.136719 14.03125 12.136719 14.332031 L 12.136719 17.15625 C 12.265625 17.167969 12.40625 17.183594 12.535156 17.195312 L 12.535156 14.089844 C 12.683594 14.101562 13.066406 14.15625 13.511719 14.339844 C 13.519531 14.34375 13.523438 14.34375 13.527344 14.347656 C 13.566406 14.351562 13.609375 14.359375 13.652344 14.371094 C 13.949219 14.464844 14.132812 14.726562 14.0625 14.953125 C 13.996094 15.183594 13.695312 15.292969 13.398438 15.203125 C 13.75 15.878906 14.980469 15.546875 15.246094 14.996094 C 15.375 14.984375 15.488281 15.21875 15.597656 15.4375 C 15.597656 15.4375 15.90625 15.554688 16.667969 15.554688 C 16.667969 15.554688 13.589844 17.523438 12.695312 17.523438 C 12.320312 17.523438 11.472656 17.523438 11.472656 17.808594 C 11.238281 17.808594 10.90625 18.203125 10.90625 18.429688 C 11.128906 18.257812 11.304688 18.257812 11.304688 18.257812 C 11.492188 18.257812 11.597656 18.316406 11.597656 18.316406 C 11.53125 18.382812 11.21875 18.726562 11.21875 18.996094 C 11.476562 18.738281 11.59375 18.738281 11.59375 18.738281 C 11.59375 18.738281 11.859375 18.707031 11.953125 18.800781 C 11.890625 18.867188 11.773438 19.101562 11.773438 19.375 C 11.773438 19.375 11.9375 19.066406 12.136719 19.066406 L 12.136719 22.023438 C 12.136719 22.113281 11.730469 22.199219 11.558594 22.199219 M 11.6875 13.628906 C 11.609375 13.632812 11.574219 13.535156 11.570312 13.5 C 11.570312 13.464844 11.601562 13.363281 11.675781 13.359375 C 11.851562 13.351562 12.214844 13.4375 12.21875 13.476562 C 12.21875 13.507812 11.867188 13.625 11.6875 13.628906 Z M 11.566406 13.144531 C 11.464844 13.136719 11.429688 12.996094 11.433594 12.945312 C 11.4375 12.894531 11.492188 12.761719 11.597656 12.765625 C 11.84375 12.789062 12.332031 12.960938 12.328125 13.011719 C 12.324219 13.0625 11.820312 13.160156 11.566406 13.144531 Z M 11.527344 12.515625 C 11.414062 12.488281 11.40625 12.332031 11.417969 12.277344 C 11.433594 12.226562 11.515625 12.089844 11.628906 12.117188 C 11.894531 12.191406 12.378906 12.472656 12.363281 12.527344 C 12.351562 12.578125 11.792969 12.589844 11.527344 12.515625 Z M 12.34375 10.757812 C 12.390625 10.644531 12.378906 10.496094 12.351562 10.359375 C 12.347656 10.359375 12.34375 10.359375 12.339844 10.359375 C 12.019531 10.359375 11.761719 10.101562 11.761719 9.78125 C 11.757812 9.726562 11.765625 9.675781 11.78125 9.628906 C 11.78125 9.628906 11.78125 9.625 11.78125 9.625 C 11.851562 9.382812 12.074219 9.210938 12.339844 9.210938 C 12.65625 9.210938 12.910156 9.46875 12.910156 9.78125 C 12.910156 10.148438 12.65625 10.488281 12.34375 10.757812 Z M 12.34375 10.757812 "/>
<path style=" stroke:none;fill-rule:nonzero;fill:rgb(92.941176%,10.980392%,14.117647%);fill-opacity:1;" d="M 20.972656 11.261719 C 21.125 11.515625 21.421875 11.679688 21.738281 11.644531 C 22.179688 11.609375 22.503906 11.214844 22.460938 10.769531 C 22.460938 10.757812 22.457031 10.742188 22.457031 10.726562 C 22.414062 10.953125 22.136719 11.148438 21.796875 11.179688 C 21.535156 11.207031 21.300781 11.132812 21.164062 11 C 21.097656 11.089844 21.03125 11.179688 20.972656 11.261719 "/>
<path style=" stroke:none;fill-rule:nonzero;fill:rgb(100%,100%,100%);fill-opacity:1;" d="M 19.898438 9.769531 L 20.175781 9.78125 L 20.039062 9.972656 C 20.039062 9.972656 19.851562 10.03125 19.898438 9.769531 M 19.238281 9.769531 L 19.636719 9.769531 C 19.636719 9.769531 19.621094 10.089844 19.914062 10.117188 L 19.851562 10.222656 C 19.851562 10.222656 19.066406 10.019531 19.238281 9.769531 Z M 19.238281 9.769531 "/>
<path style=" stroke:none;fill-rule:nonzero;fill:rgb(41.568627%,47.843137%,70.980392%);fill-opacity:1;" d="M 12.363281 12.527344 C 12.378906 12.476562 11.894531 12.191406 11.628906 12.117188 C 11.515625 12.09375 11.433594 12.226562 11.417969 12.277344 C 11.40625 12.332031 11.414062 12.488281 11.527344 12.515625 C 11.792969 12.589844 12.351562 12.578125 12.363281 12.527344 M 12.328125 13.011719 C 12.332031 12.960938 11.84375 12.789062 11.597656 12.765625 C 11.492188 12.761719 11.4375 12.894531 11.433594 12.945312 C 11.429688 12.996094 11.464844 13.136719 11.566406 13.144531 C 11.820312 13.160156 12.324219 13.0625 12.328125 13.011719 Z M 11.773438 11.550781 L 11.773438 11.738281 C 11.847656 11.808594 12.105469 11.890625 12.136719 11.890625 L 12.136719 11.523438 C 12.136719 11.523438 11.941406 11.5625 11.773438 11.550781 Z M 11.675781 13.359375 C 11.601562 13.363281 11.570312 13.464844 11.570312 13.5 C 11.574219 13.535156 11.609375 13.632812 11.6875 13.628906 C 11.867188 13.625 12.21875 13.507812 12.21875 13.476562 C 12.214844 13.4375 11.859375 13.351562 11.675781 13.359375 Z M 11.304688 18.257812 C 11.007812 18.644531 11.21875 18.996094 11.21875 18.996094 C 11.21875 18.726562 11.527344 18.382812 11.597656 18.3125 C 11.597656 18.3125 11.492188 18.257812 11.304688 18.257812 Z M 12.257812 19.078125 C 12.210938 19.316406 12.332031 19.546875 12.535156 19.65625 C 12.578125 19.675781 12.625 19.699219 12.675781 19.707031 C 12.695312 19.710938 12.71875 19.714844 12.738281 19.714844 C 12.746094 19.714844 12.753906 19.71875 12.765625 19.71875 C 12.765625 19.71875 12.464844 19.433594 12.585938 19.167969 C 12.503906 19.113281 12.390625 19.078125 12.257812 19.078125 Z M 11.707031 11.183594 C 11.257812 10.964844 10.9375 10.410156 10.9375 9.761719 C 10.9375 9.074219 11.296875 8.492188 11.796875 8.300781 C 11.046875 8.46875 10.519531 9.125 10.585938 9.878906 C 10.640625 10.507812 11.105469 11.015625 11.707031 11.183594 Z M 16.515625 9.59375 C 16.996094 9.503906 17.15625 9.933594 17.15625 10.085938 C 17.15625 10.664062 16.707031 10.898438 16.332031 10.898438 C 18.066406 10.898438 17.457031 8.652344 16.515625 9.59375 Z M 15.355469 14.582031 C 16.1875 14.582031 16.128906 13.496094 15.949219 13.320312 C 16.214844 13.054688 16.761719 11.832031 16.761719 11.609375 C 16.761719 11.609375 15.667969 11.371094 15.84375 10.613281 L 15.828125 10.609375 C 15.53125 10.921875 15.714844 11.578125 16.1875 11.742188 C 16.1875 11.742188 16.003906 12.464844 15.550781 12.921875 C 15.101562 12.902344 14.472656 12.84375 13.921875 12.632812 C 14.773438 13.085938 15.65625 13.769531 15.355469 14.582031 Z M 12.117188 9.382812 C 12.335938 9.363281 12.523438 9.515625 12.539062 9.71875 C 12.558594 9.921875 12.398438 10.105469 12.1875 10.121094 C 11.96875 10.140625 11.777344 9.984375 11.761719 9.78125 C 11.761719 10.101562 12.019531 10.359375 12.339844 10.359375 C 12.34375 10.359375 12.347656 10.359375 12.351562 10.359375 C 12.378906 10.496094 12.390625 10.644531 12.34375 10.757812 C 12.65625 10.488281 12.910156 10.148438 12.910156 9.78125 C 12.910156 9.46875 12.65625 9.210938 12.339844 9.210938 C 12.074219 9.210938 11.847656 9.382812 11.78125 9.628906 C 11.832031 9.496094 11.960938 9.398438 12.117188 9.378906 Z M 18.222656 8.964844 C 17.851562 8.585938 18.402344 7.886719 18.605469 7.886719 C 18.386719 7.886719 17.417969 8.515625 17.746094 8.964844 C 17.929688 8.964844 18.222656 8.964844 18.222656 8.964844 Z M 13.398438 15.203125 C 13.695312 15.292969 13.996094 15.183594 14.0625 14.953125 C 14.132812 14.726562 13.945312 14.464844 13.652344 14.371094 C 13.609375 14.359375 13.566406 14.351562 13.527344 14.347656 C 13.957031 14.59375 13.949219 15.085938 13.398438 15.203125 Z M 12.535156 12.042969 C 12.535156 12.042969 12.960938 12.175781 13.484375 12.417969 C 13.382812 12.351562 13.28125 12.277344 13.195312 12.195312 C 12.929688 11.945312 12.71875 11.808594 12.535156 11.738281 Z M 12.695312 17.523438 C 13.589844 17.523438 16.667969 15.554688 16.667969 15.554688 C 15.90625 15.554688 15.597656 15.4375 15.597656 15.4375 C 15.425781 15.527344 15.074219 15.703125 14.324219 16.144531 C 13.710938 16.507812 13.300781 16.960938 12.746094 17.15625 C 12.664062 17.191406 12.59375 17.199219 12.535156 17.195312 C 12.40625 17.183594 12.265625 17.167969 12.136719 17.15625 L 12.136719 14.332031 C 12.136719 14.03125 11.917969 13.917969 11.773438 13.917969 L 11.773438 17.203125 C 11.535156 17.332031 11.417969 17.488281 11.351562 17.640625 C 11.351562 17.640625 10.894531 17.578125 10.90625 18.429688 C 10.90625 18.203125 11.238281 17.808594 11.472656 17.808594 C 11.472656 17.523438 12.320312 17.523438 12.695312 17.523438 Z M 20.378906 22.070312 C 20.148438 22.070312 19.117188 22.117188 19.023438 21.214844 C 18.796875 21.167969 18.527344 21.160156 18.25 21.195312 C 18.980469 22.59375 19.773438 22.601562 19.980469 22.617188 C 20.304688 22.976562 20.195312 24.191406 19.730469 24.167969 C 18.019531 24.082031 18.082031 25.117188 18.273438 25.335938 C 18.273438 24.546875 18.804688 24.363281 20.152344 24.363281 C 20.152344 24.363281 21.253906 22.953125 20.378906 22.070312 Z M 20.730469 25.441406 L 20.5 25.441406 C 20.476562 25.816406 20.847656 25.925781 20.847656 25.925781 C 20.730469 25.808594 20.644531 25.527344 20.730469 25.441406 Z M 18.566406 25.96875 C 18.464844 25.871094 18.386719 25.476562 18.527344 25.335938 L 18.273438 25.335938 C 18.253906 25.738281 18.566406 25.96875 18.566406 25.96875 Z M 23.667969 12.976562 C 23.667969 11.78125 22.035156 11.96875 21.953125 12.886719 C 22.027344 12.214844 23.117188 12.113281 23.117188 12.957031 C 23.117188 13.828125 21.074219 14.398438 21.074219 15.871094 C 21.074219 17.488281 22.699219 17.640625 22.53125 19.121094 C 22.507812 19.378906 22.230469 19.714844 21.835938 19.714844 C 20.980469 19.714844 20.523438 19.351562 20.257812 18.839844 C 20.527344 19.566406 21.003906 20.121094 22 20.121094 C 23.03125 20.121094 23.121094 19.359375 23.121094 19.183594 C 23.121094 17.699219 21.574219 17.34375 21.574219 15.9375 C 21.574219 14.5625 23.667969 14 23.667969 12.976562 Z M 11.585938 18.738281 C 11.585938 19.199219 11.773438 19.375 11.773438 19.375 C 11.773438 19.101562 11.890625 18.867188 11.953125 18.800781 C 11.859375 18.707031 11.585938 18.738281 11.585938 18.738281 Z M 23.429688 16.210938 C 23.015625 16.210938 22.671875 16.53125 22.636719 16.9375 C 22.65625 16.839844 22.71875 16.742188 22.847656 16.652344 C 23.324219 16.292969 24.257812 17.007812 23.722656 17.746094 C 24.019531 17.625 24.222656 17.34375 24.222656 17.007812 C 24.222656 16.570312 23.867188 16.210938 23.429688 16.210938 Z M 19.785156 25.441406 L 19.507812 25.441406 C 19.476562 25.972656 19.8125 26.050781 19.8125 26.050781 C 19.671875 25.90625 19.648438 25.578125 19.785156 25.441406 Z M 11.9375 22.625 C 11.894531 22.625 11.851562 22.632812 11.816406 22.648438 C 11.683594 22.75 11.601562 22.90625 11.609375 23.078125 C 11.648438 23.21875 11.78125 23.320312 11.9375 23.320312 C 12.128906 23.320312 12.28125 23.164062 12.28125 22.972656 C 12.28125 22.78125 12.128906 22.625 11.9375 22.625 Z M 13.886719 25.191406 L 13.484375 25.191406 C 13.484375 25.835938 13.898438 25.953125 13.898438 25.953125 C 13.785156 25.832031 13.632812 25.445312 13.886719 25.191406 Z M 15.132812 21.121094 C 15.132812 19.648438 18.660156 19.476562 18.660156 18.261719 C 18.660156 17.769531 18.234375 17.546875 17.929688 17.546875 C 18.011719 17.632812 18.472656 18.617188 17.15625 18.617188 C 15.964844 19.015625 13.371094 21.269531 15.171875 22.050781 C 15.167969 22.277344 15.140625 23.964844 14.0625 23.832031 C 12.503906 23.640625 12.113281 24.285156 12.414062 25.011719 C 12.414062 23.910156 13.1875 24.113281 14.195312 24.113281 C 14.824219 24.113281 15.746094 23.316406 15.746094 21.976562 C 15.746094 21.976562 15.132812 21.738281 15.132812 21.121094 Z M 12.136719 22.023438 L 12.136719 19.066406 C 11.9375 19.066406 11.773438 19.375 11.773438 19.375 L 11.773438 21.898438 L 11.773438 21.882812 L 11.558594 21.882812 L 11.558594 22.199219 C 11.730469 22.199219 12.136719 22.113281 12.136719 22.023438 Z M 12.742188 25.832031 C 12.742188 25.832031 12.429688 25.34375 12.765625 25.011719 L 12.414062 25.011719 C 12.273438 25.621094 12.742188 25.832031 12.742188 25.832031 Z M 14.917969 25.195312 C 14.917969 25.195312 14.746094 25.195312 14.625 25.195312 C 14.621094 25.652344 15.148438 25.824219 15.148438 25.824219 C 14.960938 25.636719 14.835938 25.277344 14.917969 25.195312 Z M 14.917969 25.195312 "/>
<path style=" stroke:none;fill-rule:nonzero;fill:rgb(100%,100%,100%);fill-opacity:1;" d="M 5.113281 20.292969 L 5.09375 20.230469 L 5.085938 20.167969 C 5.054688 19.953125 5.003906 19.5625 4.699219 19.492188 C 4.621094 19.46875 4.53125 19.476562 4.445312 19.515625 C 4.46875 19.421875 4.464844 19.335938 4.4375 19.257812 C 4.324219 18.96875 3.921875 18.972656 3.710938 18.972656 L 3.648438 18.972656 L 3.585938 18.964844 C 3.375 18.921875 2.980469 18.851562 2.816406 19.117188 C 2.777344 19.191406 2.761719 19.273438 2.769531 19.371094 C 2.683594 19.316406 2.601562 19.296875 2.519531 19.300781 C 2.207031 19.316406 2.085938 19.695312 2.019531 19.902344 L 2.003906 19.960938 L 1.976562 20.011719 C 1.871094 20.203125 1.679688 20.554688 1.882812 20.789062 C 1.941406 20.855469 2.015625 20.898438 2.109375 20.917969 C 2.035156 20.980469 1.988281 21.050781 1.96875 21.132812 C 1.882812 21.4375 2.207031 21.664062 2.382812 21.789062 L 2.4375 21.828125 L 2.476562 21.871094 C 2.628906 22.03125 2.902344 22.316406 3.1875 22.195312 C 3.265625 22.164062 3.328125 22.105469 3.378906 22.023438 C 3.414062 22.113281 3.46875 22.179688 3.535156 22.226562 C 3.800781 22.394531 4.121094 22.160156 4.296875 22.035156 L 4.34375 21.996094 L 4.398438 21.96875 C 4.59375 21.875 4.957031 21.703125 4.925781 21.390625 C 4.921875 21.308594 4.886719 21.230469 4.824219 21.15625 C 4.917969 21.148438 5 21.121094 5.0625 21.066406 C 5.308594 20.871094 5.179688 20.496094 5.113281 20.292969 "/>
<path style=" stroke:none;fill-rule:nonzero;fill:rgb(92.941176%,10.980392%,14.117647%);fill-opacity:1;" d="M 3.738281 20.542969 C 5.496094 21.582031 4.953125 20.441406 4.914062 20.269531 C 4.875 20.105469 4.859375 18.84375 3.738281 20.542969 "/>
<path style=" stroke:none;fill-rule:nonzero;fill:rgb(92.941176%,10.980392%,14.117647%);fill-opacity:1;" d="M 3.628906 20.800781 C 3.183594 22.792969 4.101562 21.925781 4.25 21.839844 C 4.398438 21.746094 5.59375 21.34375 3.628906 20.800781 "/>
<path style=" stroke:none;fill-rule:nonzero;fill:rgb(92.941176%,10.980392%,14.117647%);fill-opacity:1;" d="M 3.34375 20.78125 C 1.316406 20.972656 2.421875 21.578125 2.554688 21.691406 C 2.683594 21.800781 3.441406 22.816406 3.34375 20.78125 "/>
<path style=" stroke:none;fill-rule:nonzero;fill:rgb(92.941176%,10.980392%,14.117647%);fill-opacity:1;" d="M 3.28125 20.503906 C 2.472656 18.632812 2.242188 19.871094 2.171875 20.035156 C 2.105469 20.191406 1.375 21.222656 3.28125 20.503906 "/>
<path style=" stroke:none;fill-rule:nonzero;fill:rgb(100%,100%,100%);fill-opacity:1;" d="M 32.273438 20.011719 L 32.246094 19.960938 L 32.222656 19.902344 C 32.160156 19.695312 32.042969 19.316406 31.730469 19.300781 C 31.640625 19.296875 31.5625 19.316406 31.480469 19.371094 C 31.488281 19.273438 31.46875 19.191406 31.425781 19.117188 C 31.265625 18.851562 30.875 18.921875 30.664062 18.964844 L 30.601562 18.972656 L 30.539062 18.972656 C 30.324219 18.972656 29.925781 18.96875 29.8125 19.257812 C 29.785156 19.335938 29.777344 19.421875 29.804688 19.515625 C 29.714844 19.476562 29.628906 19.46875 29.546875 19.492188 C 29.242188 19.5625 29.191406 19.953125 29.164062 20.167969 L 29.152344 20.230469 L 29.136719 20.292969 C 29.066406 20.496094 28.941406 20.871094 29.183594 21.066406 C 29.246094 21.121094 29.328125 21.148438 29.425781 21.160156 C 29.363281 21.230469 29.328125 21.308594 29.320312 21.390625 C 29.292969 21.703125 29.65625 21.875 29.84375 21.96875 L 29.902344 21.996094 L 29.953125 22.035156 C 30.128906 22.160156 30.449219 22.394531 30.707031 22.226562 C 30.777344 22.179688 30.832031 22.113281 30.867188 22.023438 C 30.921875 22.105469 30.984375 22.164062 31.058594 22.195312 C 31.347656 22.316406 31.621094 22.03125 31.769531 21.871094 L 31.8125 21.828125 L 31.863281 21.789062 C 32.042969 21.664062 32.363281 21.4375 32.28125 21.132812 C 32.261719 21.050781 32.214844 20.980469 32.136719 20.917969 C 32.230469 20.898438 32.304688 20.855469 32.359375 20.789062 C 32.566406 20.554688 32.378906 20.203125 32.273438 20.011719 "/>
<path style=" stroke:none;fill-rule:nonzero;fill:rgb(92.941176%,10.980392%,14.117647%);fill-opacity:1;" d="M 30.722656 20.359375 C 29.195312 19.007812 30.441406 19.171875 30.617188 19.152344 C 30.789062 19.140625 31.996094 18.765625 30.722656 20.359375 "/>
<path style=" stroke:none;fill-rule:nonzero;fill:rgb(92.941176%,10.980392%,14.117647%);fill-opacity:1;" d="M 30.507812 20.542969 C 28.753906 21.582031 29.292969 20.441406 29.335938 20.269531 C 29.371094 20.105469 29.386719 18.84375 30.507812 20.542969 "/>
<path style=" stroke:none;fill-rule:nonzero;fill:rgb(92.941176%,10.980392%,14.117647%);fill-opacity:1;" d="M 30.617188 20.800781 C 31.0625 22.792969 30.144531 21.925781 30 21.839844 C 29.851562 21.746094 28.652344 21.34375 30.617188 20.800781 "/>
<path style=" stroke:none;fill-rule:nonzero;fill:rgb(92.941176%,10.980392%,14.117647%);fill-opacity:1;" d="M 30.898438 20.78125 C 32.929688 20.972656 31.824219 21.578125 31.691406 21.691406 C 31.5625 21.800781 30.808594 22.816406 30.898438 20.78125 "/>
<path style=" stroke:none;fill-rule:nonzero;fill:rgb(92.941176%,10.980392%,14.117647%);fill-opacity:1;" d="M 30.960938 20.503906 C 31.773438 18.632812 32.007812 19.871094 32.074219 20.035156 C 32.140625 20.191406 32.871094 21.222656 30.960938 20.503906 "/>
<path style=" stroke:none;fill-rule:nonzero;fill:rgb(100%,100%,100%);fill-opacity:1;" d="M 31.355469 20.5625 C 31.355469 20.542969 31.351562 20.53125 31.347656 20.515625 C 31.511719 20.394531 31.6875 20.265625 31.6875 20.265625 L 31.671875 20.230469 C 31.671875 20.230469 31.464844 20.265625 31.269531 20.300781 C 31.167969 20.136719 31 20.027344 30.808594 20.007812 C 30.746094 19.824219 30.683594 19.636719 30.683594 19.636719 L 30.640625 19.640625 C 30.640625 19.640625 30.617188 19.835938 30.589844 20.027344 C 30.46875 20.058594 30.363281 20.125 30.28125 20.222656 C 30.238281 20.273438 30.207031 20.332031 30.179688 20.394531 C 29.988281 20.394531 29.773438 20.394531 29.773438 20.394531 L 29.765625 20.4375 C 29.765625 20.4375 29.960938 20.53125 30.144531 20.617188 C 30.144531 20.636719 30.140625 20.652344 30.144531 20.667969 C 30.15625 20.828125 30.230469 20.972656 30.351562 21.074219 C 30.289062 21.269531 30.214844 21.496094 30.214844 21.496094 L 30.253906 21.515625 C 30.253906 21.515625 30.414062 21.34375 30.5625 21.195312 C 30.636719 21.222656 30.722656 21.230469 30.804688 21.222656 C 30.886719 21.214844 30.964844 21.191406 31.035156 21.15625 C 31.207031 21.273438 31.398438 21.417969 31.398438 21.417969 L 31.429688 21.386719 C 31.429688 21.386719 31.320312 21.183594 31.222656 20.996094 C 31.324219 20.875 31.371094 20.71875 31.355469 20.5625 "/>
<path style=" stroke:none;fill-rule:nonzero;fill:rgb(92.941176%,10.980392%,14.117647%);fill-opacity:1;" d="M 30.71875 20.253906 C 30.621094 20.261719 30.535156 20.308594 30.472656 20.382812 C 30.414062 20.457031 30.382812 20.546875 30.390625 20.644531 C 30.410156 20.84375 30.585938 20.992188 30.777344 20.972656 C 30.878906 20.964844 30.960938 20.917969 31.027344 20.847656 C 31.085938 20.773438 31.121094 20.679688 31.109375 20.582031 C 31.089844 20.386719 30.917969 20.238281 30.71875 20.253906 "/>
<path style=" stroke:none;fill-rule:nonzero;fill:rgb(92.941176%,10.980392%,14.117647%);fill-opacity:1;" d="M 3.523438 20.359375 C 5.054688 19.007812 3.800781 19.171875 3.632812 19.152344 C 3.457031 19.140625 2.253906 18.765625 3.523438 20.359375 "/>
<path style=" stroke:none;fill-rule:nonzero;fill:rgb(100%,100%,100%);fill-opacity:1;" d="M 4.105469 20.617188 C 4.289062 20.53125 4.484375 20.4375 4.484375 20.4375 L 4.46875 20.394531 C 4.46875 20.394531 4.261719 20.394531 4.0625 20.394531 C 4.039062 20.332031 4.007812 20.273438 3.964844 20.222656 C 3.882812 20.125 3.777344 20.058594 3.660156 20.027344 C 3.632812 19.835938 3.601562 19.640625 3.601562 19.640625 L 3.5625 19.636719 C 3.5625 19.636719 3.503906 19.824219 3.441406 20.007812 C 3.246094 20.027344 3.078125 20.136719 2.980469 20.300781 C 2.78125 20.265625 2.578125 20.230469 2.578125 20.230469 L 2.5625 20.265625 C 2.5625 20.265625 2.734375 20.394531 2.898438 20.515625 C 2.898438 20.53125 2.894531 20.542969 2.890625 20.5625 C 2.875 20.722656 2.925781 20.875 3.027344 20.996094 C 2.925781 21.183594 2.816406 21.386719 2.816406 21.386719 L 2.851562 21.417969 C 2.851562 21.417969 3.042969 21.273438 3.210938 21.15625 C 3.28125 21.191406 3.363281 21.214844 3.445312 21.222656 C 3.527344 21.230469 3.609375 21.222656 3.6875 21.195312 C 3.832031 21.34375 3.996094 21.515625 3.996094 21.515625 L 4.035156 21.496094 C 4.035156 21.496094 3.960938 21.269531 3.898438 21.074219 C 4.015625 20.972656 4.09375 20.828125 4.105469 20.667969 C 4.109375 20.652344 4.105469 20.636719 4.105469 20.617188 "/>
<path style=" stroke:none;fill-rule:nonzero;fill:rgb(92.941176%,10.980392%,14.117647%);fill-opacity:1;" d="M 3.773438 20.382812 C 3.710938 20.308594 3.625 20.261719 3.527344 20.257812 C 3.332031 20.238281 3.15625 20.386719 3.136719 20.582031 C 3.128906 20.679688 3.160156 20.773438 3.21875 20.847656 C 3.28125 20.917969 3.371094 20.964844 3.464844 20.972656 C 3.664062 20.992188 3.839844 20.84375 3.855469 20.644531 C 3.863281 20.546875 3.835938 20.457031 3.773438 20.382812 "/>
<path style=" stroke:none;fill-rule:nonzero;fill:rgb(100%,100%,100%);fill-opacity:1;" d="M 3.746094 11.875 C 2.894531 11.726562 2.074219 12.296875 1.925781 13.152344 C 1.777344 14.007812 2.347656 14.824219 3.203125 14.980469 C 4.058594 15.128906 4.875 14.554688 5.027344 13.699219 C 5.179688 12.84375 4.601562 12.027344 3.746094 11.875 "/>
<path style=" stroke:none;fill-rule:nonzero;fill:rgb(92.941176%,10.980392%,14.117647%);fill-opacity:1;" d="M 4.105469 13.066406 C 4.09375 13.058594 4.066406 13.042969 4.039062 13.023438 C 3.910156 12.9375 3.65625 12.769531 3.648438 12.765625 C 3.613281 12.742188 3.582031 12.71875 3.542969 12.695312 C 3.433594 12.621094 3.332031 12.554688 3.238281 12.5 C 3.203125 12.480469 3.167969 12.460938 3.128906 12.441406 C 2.980469 12.367188 2.835938 12.324219 2.664062 12.304688 C 2.535156 12.402344 2.417969 12.515625 2.328125 12.65625 C 2.71875 12.796875 3.105469 13.019531 3.898438 13.519531 C 3.941406 13.410156 4.097656 13.085938 4.105469 13.066406 "/>
<path style=" stroke:none;fill-rule:nonzero;fill:rgb(92.941176%,10.980392%,14.117647%);fill-opacity:1;" d="M 3.738281 13.914062 C 3.757812 13.871094 3.824219 13.691406 3.851562 13.625 C 3.039062 13.121094 2.660156 12.894531 2.265625 12.757812 C 2.203125 12.867188 2.15625 12.988281 2.128906 13.109375 C 2.351562 13.417969 2.953125 13.722656 3.738281 13.914062 "/>
<path style=" stroke:none;fill-rule:nonzero;fill:rgb(92.941176%,10.980392%,14.117647%);fill-opacity:1;" d="M 3.652344 12.621094 C 3.957031 12.441406 4.304688 12.492188 4.570312 12.585938 C 4.46875 12.457031 4.351562 12.34375 4.207031 12.25 C 3.957031 12.203125 3.605469 12.195312 3.328125 12.417969 C 3.429688 12.476562 3.535156 12.546875 3.652344 12.621094 "/>
<path style=" stroke:none;fill-rule:nonzero;fill:rgb(92.941176%,10.980392%,14.117647%);fill-opacity:1;" d="M 2.433594 14.082031 C 2.472656 14.109375 2.515625 14.136719 2.5625 14.160156 C 2.648438 14.210938 2.746094 14.257812 2.847656 14.289062 C 2.890625 14.304688 2.933594 14.324219 2.976562 14.335938 C 3.128906 14.386719 3.480469 14.476562 3.507812 14.484375 C 3.511719 14.472656 3.644531 14.144531 3.695312 14.023438 C 3.082031 13.871094 2.417969 13.609375 2.105469 13.265625 C 2.082031 13.421875 2.09375 13.578125 2.125 13.730469 C 2.191406 13.875 2.300781 13.992188 2.433594 14.082031 "/>
<path style=" stroke:none;fill-rule:nonzero;fill:rgb(92.941176%,10.980392%,14.117647%);fill-opacity:1;" d="M 3.527344 14.613281 L 3.398438 14.582031 C 3.28125 14.546875 3.15625 14.515625 3.027344 14.476562 C 3.085938 14.609375 3.1875 14.71875 3.296875 14.796875 C 3.4375 14.816406 3.578125 14.8125 3.710938 14.789062 C 3.613281 14.714844 3.527344 14.613281 3.527344 14.613281 "/>
<path style=" stroke:none;fill-rule:nonzero;fill:rgb(92.941176%,10.980392%,14.117647%);fill-opacity:1;" d="M 4.796875 13.023438 C 4.769531 12.933594 4.730469 12.839844 4.6875 12.753906 C 4.445312 12.644531 4.078125 12.542969 3.761719 12.699219 L 4.199219 12.992188 C 4.292969 12.980469 4.378906 12.976562 4.453125 12.976562 C 4.496094 12.980469 4.535156 12.980469 4.574219 12.988281 C 4.65625 12.996094 4.730469 13.007812 4.796875 13.023438 "/>
<path style=" stroke:none;fill-rule:nonzero;fill:rgb(92.941176%,10.980392%,14.117647%);fill-opacity:1;" d="M 4.574219 13.105469 C 4.5625 13.828125 4.222656 14.386719 3.925781 14.734375 C 4.386719 14.574219 4.75 14.179688 4.839844 13.667969 C 4.867188 13.492188 4.863281 13.320312 4.832031 13.15625 C 4.761719 13.136719 4.675781 13.117188 4.574219 13.105469 "/>
<path style=" stroke:none;fill-rule:nonzero;fill:rgb(92.941176%,10.980392%,14.117647%);fill-opacity:1;" d="M 3.21875 12.355469 C 3.425781 12.171875 3.667969 12.109375 3.894531 12.105469 C 3.835938 12.089844 3.777344 12.074219 3.714844 12.066406 C 3.394531 12.007812 3.082031 12.066406 2.816406 12.210938 C 2.960938 12.238281 3.085938 12.289062 3.21875 12.355469 "/>
<path style=" stroke:none;fill-rule:nonzero;fill:rgb(92.941176%,10.980392%,14.117647%);fill-opacity:1;" d="M 4.21875 13.105469 C 4.113281 13.324219 4.050781 13.457031 4 13.578125 C 3.984375 13.617188 3.96875 13.652344 3.957031 13.6875 C 3.929688 13.75 3.855469 13.9375 3.855469 13.9375 L 3.808594 14.050781 L 3.613281 14.53125 C 3.667969 14.601562 3.734375 14.660156 3.796875 14.703125 C 4.089844 14.375 4.445312 13.820312 4.457031 13.097656 C 4.382812 13.09375 4.304688 13.097656 4.21875 13.105469 "/>
<path style=" stroke:none;fill-rule:nonzero;fill:rgb(92.941176%,10.980392%,14.117647%);fill-opacity:1;" d="M 2.878906 14.425781 C 2.785156 14.394531 2.683594 14.355469 2.59375 14.3125 C 2.628906 14.417969 2.675781 14.507812 2.726562 14.59375 C 2.832031 14.660156 2.945312 14.710938 3.066406 14.746094 C 2.988281 14.660156 2.921875 14.554688 2.878906 14.425781 "/>
<path style=" stroke:none;fill-rule:nonzero;fill:rgb(92.941176%,10.980392%,14.117647%);fill-opacity:1;" d="M 2.453125 14.234375 C 2.386719 14.195312 2.324219 14.152344 2.269531 14.101562 C 2.332031 14.21875 2.414062 14.324219 2.507812 14.414062 C 2.484375 14.355469 2.464844 14.296875 2.453125 14.234375 "/>
<path style=" stroke:none;fill-rule:nonzero;fill:rgb(100%,100%,100%);fill-opacity:1;" d="M 29.046875 13.699219 C 29.203125 14.554688 30.019531 15.128906 30.875 14.980469 C 31.730469 14.824219 32.300781 14.007812 32.152344 13.152344 C 32 12.296875 31.183594 11.726562 30.328125 11.875 C 29.472656 12.027344 28.898438 12.84375 29.046875 13.699219 "/>
<path style=" stroke:none;fill-rule:nonzero;fill:rgb(92.941176%,10.980392%,14.117647%);fill-opacity:1;" d="M 29.96875 13.066406 C 29.988281 13.058594 30.007812 13.042969 30.039062 13.023438 C 30.167969 12.9375 30.421875 12.769531 30.425781 12.765625 C 30.464844 12.742188 30.496094 12.71875 30.53125 12.695312 C 30.640625 12.621094 30.742188 12.554688 30.835938 12.5 C 30.875 12.480469 30.914062 12.460938 30.945312 12.441406 C 31.09375 12.367188 31.238281 12.324219 31.410156 12.304688 C 31.542969 12.402344 31.65625 12.515625 31.746094 12.65625 C 31.355469 12.796875 30.972656 13.019531 30.175781 13.519531 C 30.132812 13.410156 29.984375 13.085938 29.96875 13.066406 "/>
<path style=" stroke:none;fill-rule:nonzero;fill:rgb(92.941176%,10.980392%,14.117647%);fill-opacity:1;" d="M 30.339844 13.914062 C 30.324219 13.871094 30.253906 13.691406 30.222656 13.625 C 31.039062 13.121094 31.417969 12.894531 31.8125 12.757812 C 31.871094 12.867188 31.917969 12.988281 31.945312 13.109375 C 31.722656 13.417969 31.125 13.722656 30.339844 13.914062 "/>
<path style=" stroke:none;fill-rule:nonzero;fill:rgb(92.941176%,10.980392%,14.117647%);fill-opacity:1;" d="M 30.425781 12.621094 C 30.121094 12.441406 29.773438 12.492188 29.503906 12.585938 C 29.605469 12.457031 29.730469 12.34375 29.871094 12.25 C 30.121094 12.203125 30.472656 12.195312 30.746094 12.417969 C 30.648438 12.476562 30.542969 12.546875 30.425781 12.621094 "/>
<path style=" stroke:none;fill-rule:nonzero;fill:rgb(92.941176%,10.980392%,14.117647%);fill-opacity:1;" d="M 31.640625 14.082031 C 31.605469 14.109375 31.5625 14.136719 31.519531 14.160156 C 31.425781 14.210938 31.332031 14.257812 31.230469 14.289062 C 31.1875 14.304688 31.144531 14.324219 31.097656 14.335938 C 30.949219 14.386719 30.597656 14.476562 30.570312 14.484375 C 30.5625 14.472656 30.429688 14.144531 30.386719 14.023438 C 30.992188 13.871094 31.65625 13.609375 31.976562 13.265625 C 31.992188 13.421875 31.984375 13.578125 31.953125 13.730469 C 31.882812 13.875 31.78125 13.992188 31.640625 14.082031 "/>
<path style=" stroke:none;fill-rule:nonzero;fill:rgb(92.941176%,10.980392%,14.117647%);fill-opacity:1;" d="M 30.550781 14.613281 L 30.675781 14.582031 C 30.796875 14.546875 30.921875 14.515625 31.054688 14.476562 C 30.988281 14.609375 30.886719 14.71875 30.785156 14.796875 C 30.640625 14.816406 30.5 14.8125 30.363281 14.789062 C 30.464844 14.714844 30.550781 14.613281 30.550781 14.613281 "/>
<path style=" stroke:none;fill-rule:nonzero;fill:rgb(92.941176%,10.980392%,14.117647%);fill-opacity:1;" d="M 29.277344 13.023438 C 29.304688 12.933594 29.34375 12.839844 29.394531 12.753906 C 29.632812 12.644531 29.996094 12.542969 30.316406 12.699219 L 29.875 12.992188 C 29.785156 12.980469 29.699219 12.976562 29.621094 12.976562 C 29.578125 12.980469 29.542969 12.980469 29.503906 12.988281 C 29.417969 12.996094 29.34375 13.007812 29.277344 13.023438 "/>
<path style=" stroke:none;fill-rule:nonzero;fill:rgb(92.941176%,10.980392%,14.117647%);fill-opacity:1;" d="M 29.503906 13.105469 C 29.515625 13.828125 29.859375 14.386719 30.152344 14.734375 C 29.691406 14.574219 29.328125 14.179688 29.238281 13.667969 C 29.207031 13.492188 29.210938 13.320312 29.242188 13.15625 C 29.3125 13.136719 29.402344 13.117188 29.503906 13.105469 "/>
<path style=" stroke:none;fill-rule:nonzero;fill:rgb(92.941176%,10.980392%,14.117647%);fill-opacity:1;" d="M 30.859375 12.355469 C 30.65625 12.171875 30.410156 12.109375 30.1875 12.105469 C 30.242188 12.089844 30.296875 12.074219 30.359375 12.066406 C 30.679688 12.007812 30.992188 12.066406 31.257812 12.210938 C 31.121094 12.238281 30.992188 12.289062 30.859375 12.355469 "/>
<path style=" stroke:none;fill-rule:nonzero;fill:rgb(92.941176%,10.980392%,14.117647%);fill-opacity:1;" d="M 29.859375 13.105469 C 29.964844 13.324219 30.023438 13.457031 30.078125 13.578125 C 30.09375 13.617188 30.105469 13.652344 30.125 13.6875 C 30.148438 13.75 30.222656 13.9375 30.222656 13.9375 L 30.269531 14.050781 L 30.464844 14.53125 C 30.410156 14.601562 30.34375 14.660156 30.28125 14.703125 C 29.992188 14.375 29.628906 13.820312 29.621094 13.097656 C 29.691406 13.09375 29.773438 13.097656 29.859375 13.105469 "/>
<path style=" stroke:none;fill-rule:nonzero;fill:rgb(92.941176%,10.980392%,14.117647%);fill-opacity:1;" d="M 31.199219 14.425781 C 31.292969 14.394531 31.390625 14.355469 31.480469 14.3125 C 31.449219 14.417969 31.398438 14.507812 31.347656 14.59375 C 31.242188 14.660156 31.132812 14.710938 31.011719 14.746094 C 31.089844 14.660156 31.15625 14.554688 31.199219 14.425781 "/>
<path style=" stroke:none;fill-rule:nonzero;fill:rgb(92.941176%,10.980392%,14.117647%);fill-opacity:1;" d="M 31.625 14.234375 C 31.6875 14.195312 31.75 14.152344 31.808594 14.101562 C 31.742188 14.21875 31.664062 14.324219 31.566406 14.414062 C 31.59375 14.355469 31.609375 14.296875 31.625 14.234375 "/>
</g>
</svg>
